<svg xmlns="http://www.w3.org/2000/svg" width="1776" height="591" viewBox="0 0 1776 591">
<g>
<path d="M 758.38,358.28 L 757.49,358.47 L 757.16,358.58 L 756.58,358.82 L 756.45,358.95 L 756.34,359.41 L 756.28,360.05 L 756.24,360.54 L 756.18,361.63 L 756.15,362.34 L 756.10,363.86 L 756.07,364.78 L 756.02,366.72 L 756.00,367.85 L 755.95,370.21 L 755.93,371.54 L 755.89,374.29 L 755.87,375.82 L 755.84,378.96 L 755.82,380.68 L 755.80,384.20 L 755.78,386.10 L 755.76,389.99 L 755.75,392.07 L 755.74,396.32 L 755.73,398.57 L 755.72,403.17 L 755.72,405.59 L 755.71,410.51 L 755.71,413.10 L 755.72,418.35 L 755.72,421.09 L 755.73,426.65 L 755.74,429.55 L 755.75,435.41 L 755.76,438.45 L 756.02,517.00 L 764.98,517.00 L 765.24,479.25 L 765.50,441.50 L 766.00,441.50 L 766.00,518.00 L 754.00,518.00 L 754.00,358.00 L 761.70,358.00 M 867.37,443.24 L 867.37,443.24 L 866.77,441.00 L 863.21,441.00 L 866.76,440.98 M 804.75,86.24 L 859.50,86.50 L 859.50,113.50 L 781.49,114.02 L 781.50,113.50 L 820.00,112.97 L 827.74,112.86 L 832.66,112.78 L 834.97,112.75 L 839.47,112.67 L 841.53,112.64 L 845.51,112.57 L 847.26,112.53 L 850.61,112.46 L 852.01,112.43 L 854.62,112.37 L 855.62,112.35 L 857.38,112.30 L 857.91,112.28 L 858.73,112.24 L 858.75,112.22 L 858.89,111.83 L 858.96,111.33 L 858.99,110.97 L 859.08,109.28 L 859.10,108.13 L 859.11,105.65 L 859.10,104.24 L 859.05,101.33 L 859.00,99.84 L 858.90,96.86 L 858.83,95.47 L 858.68,92.79 L 858.59,91.68 L 858.41,89.65 L 858.31,89.00 L 858.21,88.43 L 858.16,88.26 L 858.05,87.99 L 858.00,87.99 L 857.63,87.99 L 857.12,87.99 L 856.74,87.99 L 855.90,87.99 L 855.36,87.99 L 854.20,87.99 L 853.51,87.99 L 852.06,87.99 L 851.22,87.99 L 849.49,87.99 L 848.53,87.99 L 844.42,87.98 L 842.02,87.98 L 837.00,87.98 L 834.19,87.98 L 828.40,87.98 L 825.27,87.98 L 818.86,87.98 L 815.47,87.98 L 808.57,87.98 L 805.00,87.98 L 794.53,87.98 L 787.86,87.98 L 784.73,87.98 L 778.61,87.98 L 775.81,87.98 L 770.38,87.98 L 767.98,87.98 L 763.40,87.99 L 761.47,87.99 L 759.61,87.99 L 758.78,87.99 L 757.18,87.99 L 756.49,87.99 L 755.18,87.99 L 754.64,87.99 L 753.64,87.99 L 753.26,87.99 L 752.58,87.99 L 752.37,87.99 L 752.03,87.99 L 752.00,87.99 L 751.85,88.44 L 751.76,89.18 L 751.72,89.75 L 751.64,91.04 L 751.60,91.87 L 751.52,93.66 L 751.48,94.73 L 751.41,96.99 L 751.38,98.28 L 751.32,100.97 L 751.29,102.46 L 751.23,105.54 L 751.21,107.22 L 751.16,110.65 L 751.13,112.49 L 751.09,116.24 L 751.07,118.22 L 751.04,122.25 L 751.02,124.36 L 750.97,133.02 L 750.95,137.61 L 750.92,146.96 L 750.91,151.79 L 750.91,161.52 L 750.92,166.43 L 750.94,176.24 L 750.96,181.07 L 751.01,190.66 L 751.04,195.27 L 751.11,204.33 L 751.16,208.56 L 751.20,212.73 L 751.23,214.72 L 751.28,218.63 L 751.31,220.48 L 751.36,224.10 L 751.39,225.79 L 751.46,229.07 L 751.49,230.58 L 751.56,233.49 L 751.60,234.80 L 751.67,237.30 L 751.71,238.39 L 751.79,240.45 L 751.83,241.30 L 751.92,242.87 L 751.96,243.46 L 752.06,244.51 L 752.10,244.83 L 752.20,245.32 L 752.25,245.34 L 752.46,245.38 L 752.71,245.40 L 753.30,245.45 L 753.73,245.47 L 754.67,245.51 L 755.27,245.52 L 756.54,245.56 L 757.29,245.58 L 758.87,245.61 L 759.77,245.63 L 761.62,245.66 L 762.65,245.67 L 766.99,245.73 L 769.49,245.76 L 774.68,245.80 L 777.52,245.82 L 783.36,245.85 L 786.45,245.87 L 799.22,245.91 L 805.80,245.91 L 818.97,245.91 L 825.15,245.89 L 831.24,245.86 L 834.09,245.85 L 839.63,245.81 L 842.13,245.79 L 846.93,245.75 L 848.98,245.72 L 850.97,245.69 L 851.87,245.68 L 853.59,245.65 L 854.34,245.63 L 855.78,245.59 L 856.38,245.58 L 857.49,245.54 L 857.92,245.52 L 858.70,245.48 L 858.95,245.46 L 859.36,245.42 L 859.42,245.39 L 860.22,244.61 L 860.42,244.12 L 860.50,243.79 L 860.65,243.07 L 860.71,242.59 L 860.81,241.57 L 860.85,240.93 L 860.92,239.56 L 860.94,238.73 L 860.98,236.96 L 860.99,235.91 L 861.00,233.69 L 861.00,220.15 L 861.52,222.25 L 861.56,222.40 L 861.63,222.93 L 861.66,223.22 L 861.72,223.99 L 861.77,224.82 L 861.83,227.07 L 861.86,228.27 L 861.86,231.05 L 861.79,235.50 L 861.50,246.50 L 805.75,246.76 L 750.00,247.02 L 750.00,85.98 M 1233.54,86.12 L 1235.91,86.13 L 1237.06,86.14 L 1239.11,86.16 L 1241.10,86.19 L 1244.28,86.29 L 1245.76,86.35 L 1248.16,86.53 L 1249.29,86.63 L 1251.20,86.89 L 1256.50,88.06 L 1258.90,88.69 L 1260.61,89.28 L 1258.50,88.87 L 1256.77,88.67 L 1254.98,88.49 L 1253.97,88.42 L 1251.88,88.28 L 1250.70,88.22 L 1248.26,88.12 L 1246.89,88.09 L 1244.04,88.02 L 1242.45,88.00 L 1239.15,87.95 L 1237.31,87.94 L 1233.51,87.92 L 1231.41,87.92 L 1227.06,87.92 L 1224.66,87.92 L 1219.72,87.93 L 1217.00,87.93 L 1209.04,87.95 L 1203.96,87.96 L 1201.56,87.96 L 1196.89,87.97 L 1194.74,87.97 L 1190.58,87.98 L 1188.74,87.99 L 1185.21,87.99 L 1183.72,87.99 L 1180.93,88.00 L 1179.85,88.00 L 1177.92,88.00 L 1177.31,88.00 L 1176.34,88.01 L 1176.25,88.01 L 1176.07,88.20 L 1175.96,88.54 L 1175.91,88.83 L 1175.81,89.47 L 1175.77,89.92 L 1175.68,90.90 L 1175.64,91.53 L 1175.56,92.87 L 1175.52,93.69 L 1175.45,95.42 L 1175.42,96.44 L 1175.36,98.60 L 1175.33,99.84 L 1175.28,102.45 L 1175.25,103.93 L 1175.21,107.01 L 1175.19,108.74 L 1175.15,112.33 L 1175.13,114.32 L 1175.10,118.44 L 1175.09,120.72 L 1175.07,125.40 L 1175.06,127.97 L 1175.04,133.25 L 1175.03,136.12 L 1175.02,142.02 L 1175.01,145.21 L 1175.01,151.76 L 1175.00,155.29 L 1175.00,162.51 L 1175.00,166.39 L 1175.00,178.90 L 1175.01,186.54 L 1175.01,190.02 L 1175.02,196.78 L 1175.02,199.84 L 1175.04,205.76 L 1175.05,208.43 L 1175.07,213.57 L 1175.08,215.87 L 1175.11,220.29 L 1175.13,222.25 L 1175.16,226.01 L 1175.18,227.65 L 1175.23,230.79 L 1175.26,232.15 L 1175.31,234.73 L 1175.35,235.83 L 1175.42,237.90 L 1175.46,238.76 L 1175.54,240.38 L 1175.58,241.04 L 1175.68,242.26 L 1175.73,242.74 L 1175.85,243.62 L 1175.91,243.95 L 1176.03,244.53 L 1176.11,244.74 L 1176.40,245.32 L 1176.58,245.39 L 1177.15,245.51 L 1177.76,245.59 L 1178.17,245.63 L 1180.05,245.77 L 1181.31,245.82 L 1184.01,245.92 L 1185.56,245.95 L 1188.77,246.00 L 1190.46,246.00 L 1193.59,245.98 L 1195.43,245.95 L 1196.24,245.93 L 1197.78,245.87 L 1198.45,245.84 L 1199.71,245.75 L 1200.24,245.70 L 1202.10,245.46 L 1202.69,245.29 L 1203.66,244.91 L 1203.86,244.67 L 1204.12,243.96 L 1204.28,243.11 L 1204.35,242.50 L 1204.50,241.15 L 1204.57,240.29 L 1204.69,238.45 L 1204.75,237.34 L 1204.86,235.02 L 1204.91,233.67 L 1205.01,230.87 L 1205.05,229.29 L 1205.12,226.01 L 1205.15,224.20 L 1205.21,220.46 L 1205.23,218.42 L 1205.50,193.50 L 1206.00,193.50 L 1206.00,247.00 L 1189.03,247.00 L 1186.49,246.98 L 1185.28,246.97 L 1183.16,246.93 L 1182.16,246.91 L 1180.44,246.85 L 1179.63,246.81 L 1178.28,246.72 L 1177.65,246.67 L 1176.65,246.55 L 1176.18,246.49 L 1175.49,246.34 L 1175.18,246.26 L 1174.78,246.07 L 1174.61,245.97 L 1174.46,245.75 L 1174.44,245.71 L 1174.41,245.21 L 1174.40,244.90 L 1174.37,243.89 L 1174.36,243.32 L 1174.33,241.81 L 1174.32,241.00 L 1174.30,239.03 L 1174.28,237.99 L 1174.26,235.58 L 1174.26,234.33 L 1174.24,231.51 L 1174.23,230.06 L 1174.22,226.86 L 1174.21,225.21 L 1174.20,221.66 L 1174.19,219.84 L 1174.19,215.96 L 1174.18,213.98 L 1174.18,209.80 L 1174.18,205.55 L 1174.18,196.27 L 1174.18,191.52 L 1174.20,181.39 L 1174.24,165.50 L 1174.50,86.50 L 1211.50,86.22 L 1213.69,86.21 L 1217.69,86.18 L 1219.63,86.17 L 1223.16,86.15 L 1224.88,86.14 L 1227.99,86.12 L 1229.50,86.12 L 1232.22,86.12 M 1436.00,247.00 L 1325.00,247.00 L 1325.00,86.00 L 1434.00,86.00 L 1434.00,114.00 L 1356.49,114.00 L 1356.50,113.50 L 1394.50,112.97 L 1402.14,112.86 L 1407.00,112.78 L 1409.27,112.75 L 1413.72,112.67 L 1415.75,112.64 L 1419.68,112.56 L 1421.41,112.53 L 1424.72,112.46 L 1426.10,112.43 L 1428.67,112.37 L 1429.65,112.35 L 1431.40,112.30 L 1431.92,112.27 L 1432.73,112.23 L 1432.75,112.22 L 1432.80,111.93 L 1432.83,111.51 L 1432.85,111.19 L 1432.90,109.65 L 1432.93,108.54 L 1432.97,106.12 L 1432.98,104.68 L 1433.00,101.65 L 1433.00,88.00 L 1326.00,88.00 L 1326.00,166.33 L 1326.01,182.08 L 1326.04,192.10 L 1326.05,196.80 L 1326.09,205.97 L 1326.11,210.17 L 1326.14,214.29 L 1326.15,216.24 L 1326.18,220.06 L 1326.20,221.85 L 1326.23,225.35 L 1326.24,226.96 L 1326.28,230.11 L 1326.29,231.54 L 1326.33,234.30 L 1326.35,235.53 L 1326.39,237.88 L 1326.41,238.89 L 1326.45,240.81 L 1326.47,241.60 L 1326.51,243.05 L 1326.53,243.60 L 1326.58,244.57 L 1326.60,244.86 L 1326.64,245.31 L 1326.67,245.33 L 1326.81,245.38 L 1327.01,245.40 L 1327.51,245.45 L 1327.89,245.47 L 1328.72,245.51 L 1329.26,245.53 L 1330.42,245.57 L 1331.12,245.59 L 1332.58,245.63 L 1333.42,245.65 L 1335.17,245.69 L 1336.15,245.71 L 1340.31,245.77 L 1342.75,245.80 L 1347.85,245.86 L 1350.70,245.89 L 1356.59,245.93 L 1359.78,245.95 L 1366.32,245.98 L 1369.78,245.99 L 1376.81,246.00 L 1380.47,246.00 L 1387.66,246.00 L 1392.15,245.99 L 1394.25,245.99 L 1398.35,245.97 L 1400.25,245.97 L 1403.98,245.95 L 1405.70,245.94 L 1409.06,245.92 L 1410.61,245.90 L 1413.62,245.88 L 1414.99,245.86 L 1417.67,245.82 L 1418.88,245.80 L 1421.23,245.76 L 1422.29,245.74 L 1424.33,245.69 L 1425.24,245.66 L 1426.99,245.61 L 1427.76,245.58 L 1429.22,245.51 L 1429.85,245.48 L 1431.05,245.41 L 1431.55,245.37 L 1433.31,245.21 L 1433.85,245.11 L 1434.69,244.91 L 1434.80,244.80 L 1435.32,243.54 L 1435.60,242.03 L 1435.70,240.94 L 1435.87,238.55 L 1435.92,237.03 L 1436.00,233.76 M 1632.21,114.20 L 1632.61,114.51 L 1632.75,114.70 L 1633.08,115.86 L 1633.18,116.55 L 1633.23,117.00 L 1633.31,117.95 L 1633.35,118.54 L 1633.43,119.79 L 1633.47,120.52 L 1633.54,122.08 L 1633.57,122.98 L 1633.63,124.87 L 1633.66,125.95 L 1633.71,128.19 L 1633.74,129.45 L 1633.78,132.06 L 1633.80,133.51 L 1633.84,136.52 L 1633.86,138.18 L 1633.89,141.60 L 1633.91,143.48 L 1633.93,147.33 L 1633.94,149.43 L 1633.96,153.75 L 1633.97,156.09 L 1633.98,160.88 L 1633.99,163.47 L 1633.99,168.76 L 1634.00,171.60 L 1634.00,177.42 L 1634.00,180.52 L 1634.01,193.42 L 1634.04,201.63 L 1634.05,205.48 L 1634.09,213.00 L 1634.11,216.44 L 1634.17,223.08 L 1634.20,226.02 L 1634.23,228.89 L 1634.24,230.22 L 1634.28,232.79 L 1634.29,233.97 L 1634.33,236.24 L 1634.35,237.25 L 1634.39,239.18 L 1634.41,240.01 L 1634.45,241.59 L 1634.47,242.24 L 1634.51,243.44 L 1634.53,243.89 L 1634.58,244.69 L 1634.60,244.93 L 1634.64,245.31 L 1634.67,245.33 L 1634.85,245.42 L 1635.06,245.47 L 1635.57,245.55 L 1635.93,245.59 L 1637.66,245.74 L 1638.87,245.80 L 1641.50,245.91 L 1643.06,245.95 L 1646.30,246.00 L 1648.04,246.00 L 1651.31,245.98 L 1653.23,245.95 L 1654.06,245.93 L 1655.66,245.88 L 1656.34,245.84 L 1657.64,245.75 L 1658.18,245.70 L 1660.09,245.46 L 1660.69,245.29 L 1661.66,244.91 L 1661.87,244.66 L 1662.01,244.26 L 1662.10,243.78 L 1662.15,243.42 L 1662.23,242.63 L 1662.27,242.12 L 1662.35,241.03 L 1662.39,240.36 L 1662.47,238.95 L 1662.50,238.12 L 1662.57,236.38 L 1662.60,235.38 L 1662.67,233.31 L 1662.70,232.15 L 1662.76,229.73 L 1662.78,228.39 L 1662.84,225.63 L 1662.86,224.12 L 1662.91,220.99 L 1662.94,219.30 L 1662.98,215.81 L 1663.00,214.16 L 1663.00,247.00 L 1632.00,247.00 L 1632.00,114.06 M 954.18,246.69 L 953.10,246.79 L 950.32,246.92 L 945.27,247.00 L 950.32,246.92 L 953.10,246.79 L 954.18,246.69 L 955.05,246.58 M 1039.04,195.27 L 1039.11,204.34 L 1039.15,208.58 L 1039.19,212.76 L 1039.22,214.75 L 1039.27,218.68 L 1039.29,220.53 L 1039.35,224.17 L 1039.38,225.86 L 1039.44,229.17 L 1039.47,230.69 L 1039.54,233.63 L 1039.57,234.95 L 1039.64,237.48 L 1039.68,238.59 L 1039.76,240.68 L 1039.80,241.55 L 1039.88,243.16 L 1039.92,243.77 L 1040.01,244.87 L 1040.06,245.21 L 1040.15,245.75 L 1040.14,245.74 L 1040.04,245.41 L 1039.98,245.20 L 1039.89,244.55 L 1039.84,244.19 L 1039.75,243.20 L 1039.71,242.67 L 1039.63,241.32 L 1039.59,240.60 L 1039.52,238.88 L 1039.48,237.97 L 1039.42,235.84 L 1039.39,234.72 L 1039.33,232.17 L 1039.31,230.84 L 1039.26,227.84 L 1039.23,226.28 L 1039.19,222.81 L 1039.17,221.01 L 1039.14,217.05 L 1039.12,215.00 L 1039.09,210.53 L 1039.08,208.22 L 1039.06,203.21 L 1039.05,200.63 L 1039.03,195.06 L 1039.03,193.31 M 945.66,207.05 L 945.59,207.19 L 943.93,202.35 L 942.57,198.39 M 955.60,182.11 L 955.55,182.26 L 955.60,182.11 M 1013.11,86.20 L 1016.31,86.29 L 1017.04,86.32 L 1018.28,86.39 L 1018.85,86.43 L 1019.75,86.52 L 1020.15,86.56 L 1020.68,86.67 L 1021.00,86.85 L 1021.00,86.93 L 1020.82,87.52 L 1020.71,87.89 L 1020.31,89.04 L 1020.09,89.67 L 1019.48,91.33 L 1019.16,92.22 L 1018.36,94.35 L 1017.94,95.48 L 1016.97,98.05 L 1016.47,99.38 L 1015.33,102.35 L 1014.75,103.89 L 1013.47,107.22 L 1012.81,108.93 L 1011.40,112.59 L 1010.68,114.45 L 1009.15,118.40 L 1008.37,120.40 L 1006.74,124.60 L 1005.08,128.85 L 1001.52,137.95 L 999.72,142.57 L 995.94,152.18 L 994.04,157.02 L 990.17,166.84 L 989.91,167.50 L 989.93,167.43 L 993.73,157.72 L 995.60,152.94 L 999.29,143.45 L 1001.06,138.89 L 1004.53,129.92 L 1006.14,125.73 L 1007.73,121.59 L 1008.49,119.62 L 1009.97,115.73 L 1010.67,113.89 L 1012.04,110.30 L 1012.67,108.62 L 1013.91,105.34 L 1014.47,103.84 L 1015.56,100.93 L 1016.05,99.62 L 1016.98,97.11 L 1017.38,96.02 L 1018.13,93.94 L 1018.43,93.08 L 1019.00,91.47 L 1019.20,90.86 L 1019.56,89.76 L 1019.65,89.42 L 1019.79,88.87 L 1019.77,88.82 L 1019.37,88.60 L 1018.80,88.47 L 1018.37,88.41 L 1017.45,88.30 L 1016.87,88.25 L 1015.64,88.16 L 1014.93,88.12 L 1011.88,87.99 L 1010.12,87.95 L 1006.48,87.89 L 1004.60,87.89 L 1000.83,87.91 L 999.04,87.95 L 995.58,88.04 L 994.11,88.12 L 992.70,88.20 L 992.09,88.25 L 990.94,88.35 L 990.48,88.41 L 989.64,88.53 L 989.36,88.60 L 988.89,88.74 L 988.82,88.81 L 988.60,89.19 L 988.38,89.65 L 988.24,89.99 L 987.58,91.57 L 987.16,92.68 L 986.26,95.07 L 985.75,96.48 L 984.70,99.42 L 984.15,101.00 L 982.24,106.49 L 980.75,110.72 L 979.97,112.94 L 978.40,117.41 L 977.65,119.54 L 976.17,123.71 L 975.53,125.50 L 971.57,136.74 L 970.34,140.26 L 969.82,141.76 L 969.32,143.20 L 969.11,143.83 L 968.70,145.02 L 969.11,143.83 L 969.32,143.20 L 969.82,141.76 L 970.34,140.26 L 971.57,136.74 L 975.53,125.50 L 976.73,122.13 L 979.30,114.73 L 980.59,111.02 L 983.03,103.84 L 983.61,102.11 L 984.68,98.91 L 985.19,97.37 L 986.08,94.65 L 986.50,93.36 L 987.16,91.27 L 987.85,89.00 L 988.55,86.50 L 1004.77,86.23 L 1007.06,86.19 L 1011.16,86.19 M 1292.39,160.79 L 1291.85,161.95 L 1292.73,159.85 M 1090.97,152.74 L 1092.98,152.78 L 1097.27,152.85 L 1104.00,152.97 L 1137.50,153.50 L 1104.30,153.00 L 1096.64,152.87 L 1091.99,152.77 L 1090.84,152.74 M 1356.15,150.63 L 1356.17,151.13 L 1356.20,151.78 L 1356.25,152.22 L 1356.27,152.23 L 1356.98,152.27 L 1357.45,152.29 L 1358.99,152.34 L 1359.86,152.37 L 1362.13,152.43 L 1363.35,152.46 L 1366.27,152.53 L 1367.80,152.56 L 1371.26,152.63 L 1373.05,152.67 L 1376.97,152.74 L 1378.98,152.78 L 1383.27,152.85 L 1390.00,152.97 L 1383.27,152.85 L 1378.98,152.78 L 1376.97,152.74 L 1373.05,152.67 L 1371.26,152.63 L 1367.79,152.56 L 1366.26,152.53 L 1363.34,152.46 L 1362.12,152.43 L 1359.84,152.37 L 1358.98,152.34 L 1357.43,152.29 L 1356.97,152.27 L 1356.25,152.23 L 1356.23,152.22 L 1356.18,151.78 L 1356.15,151.11 L 1356.14,150.61 L 1356.13,149.94 M 782.45,152.23 L 782.31,152.22 L 782.23,152.16 L 781.90,151.73 L 781.80,151.46 M 1148.00,114.00 L 1070.00,114.00 L 1070.00,135.61 L 1070.02,140.39 L 1070.03,141.54 L 1070.04,143.64 L 1070.05,144.66 L 1070.07,146.48 L 1070.08,147.35 L 1070.11,148.84 L 1070.12,149.54 L 1070.15,150.63 L 1070.17,151.13 L 1070.19,151.53 L 1070.11,151.51 L 1070.03,151.43 L 1069.78,150.88 L 1069.64,150.24 L 1069.58,149.79 L 1069.46,148.78 L 1069.42,148.14 L 1069.33,146.78 L 1069.29,145.96 L 1069.23,144.24 L 1069.21,143.24 L 1069.18,141.16 L 1069.18,139.99 L 1069.17,137.56 L 1069.18,136.22 L 1069.20,133.44 L 1069.23,131.93 L 1069.50,113.50 L 1108.00,112.97 L 1115.74,112.86 L 1120.66,112.78 L 1122.97,112.75 L 1127.47,112.67 L 1129.53,112.64 L 1133.51,112.57 L 1135.26,112.53 L 1138.61,112.46 L 1140.01,112.43 L 1142.62,112.37 L 1143.62,112.35 L 1145.38,112.30 L 1145.91,112.28 L 1146.73,112.24 L 1146.75,112.22 L 1146.80,111.93 L 1146.83,111.51 L 1146.85,111.19 L 1146.90,109.65 L 1146.93,108.54 L 1146.97,106.13 L 1146.98,104.69 L 1147.00,101.66 L 1147.00,88.03 L 1094.00,87.77 L 1083.33,87.72 L 1076.53,87.70 L 1073.34,87.69 L 1067.10,87.68 L 1064.25,87.68 L 1058.72,87.67 L 1056.27,87.68 L 1051.60,87.69 L 1049.64,87.69 L 1047.74,87.70 L 1046.89,87.71 L 1045.27,87.72 L 1044.57,87.72 L 1043.24,87.74 L 1042.69,87.75 L 1041.67,87.76 L 1041.28,87.77 L 1040.59,87.79 L 1040.37,87.80 L 1040.03,87.82 L 1040.00,87.83 L 1039.86,88.33 L 1039.77,89.09 L 1039.73,89.68 L 1039.64,90.98 L 1039.61,91.82 L 1039.53,93.63 L 1039.50,94.71 L 1039.43,96.98 L 1039.40,98.28 L 1039.33,100.97 L 1039.31,102.47 L 1039.25,105.56 L 1039.22,107.24 L 1039.18,110.68 L 1039.15,112.52 L 1039.11,116.27 L 1039.09,118.25 L 1039.06,122.28 L 1039.04,124.39 L 1039.00,130.78 L 1039.00,86.00 L 1148.00,86.00 M 880.53,86.15 L 886.24,86.23 L 902.48,86.50 L 909.69,106.50 L 910.19,107.88 L 911.43,111.34 L 912.09,113.18 L 913.62,117.44 L 914.42,119.66 L 916.18,124.56 L 917.08,127.08 L 919.00,132.46 L 920.96,137.92 L 922.15,141.24 L 920.42,136.49 L 918.22,130.45 L 917.15,127.54 L 915.05,121.81 L 914.05,119.10 L 912.10,113.80 L 911.20,111.36 L 909.44,106.63 L 908.66,104.53 L 907.14,100.50 L 906.50,98.79 L 905.28,95.59 L 904.80,94.35 L 904.34,93.17 L 904.14,92.67 L 903.77,91.75 L 903.63,91.40 L 903.36,90.76 L 903.26,90.55 L 903.10,90.20 L 903.06,90.15 L 901.82,88.81 L 901.28,88.51 L 900.92,88.39 L 900.13,88.19 L 899.60,88.12 L 898.44,87.99 L 897.67,87.95 L 896.01,87.89 L 894.96,87.87 L 892.68,87.86 L 891.27,87.86 L 888.26,87.87 L 886.44,87.88 L 882.50,87.92 L 880.23,87.96 L 879.27,87.98 L 877.45,88.04 L 876.69,88.08 L 875.28,88.17 L 874.72,88.22 L 873.68,88.33 L 873.29,88.40 L 872.59,88.54 L 872.36,88.62 L 871.97,88.80 L 871.87,88.90 L 871.75,89.11 L 871.78,89.23 L 872.16,90.43 L 872.69,91.90 L 873.09,92.96 L 873.97,95.29 L 874.53,96.76 L 875.73,99.90 L 876.45,101.76 L 877.97,105.67 L 878.84,107.90 L 880.65,112.53 L 881.67,115.11 L 883.76,120.43 L 884.90,123.33 L 885.75,125.47 L 885.70,125.34 L 884.70,122.82 L 882.67,117.67 L 881.66,115.14 L 879.80,110.42 L 879.36,109.30 L 878.54,107.24 L 877.47,104.50 L 876.82,102.85 L 875.52,99.68 L 874.89,98.15 L 873.73,95.45 L 873.17,94.18 L 872.27,92.24 L 872.07,91.82 L 871.74,91.17 L 871.37,90.53 L 870.99,89.98 L 870.43,89.07 L 870.19,88.64 L 869.99,87.96 L 869.94,87.65 L 870.19,87.16 L 870.39,86.94 L 871.20,86.62 L 871.69,86.48 L 873.16,86.30 L 873.99,86.23 L 876.22,86.16 L 877.44,86.13 M 1295.16,128.50 L 1295.52,130.26 L 1295.73,131.91 L 1295.10,128.25 M 1293.78,123.31 L 1294.33,125.01 L 1294.62,126.22 L 1294.40,125.41 L 1293.66,122.98 M 1714.78,99.75 L 1714.50,113.50 L 1663.50,114.03 L 1663.50,113.50 L 1688.50,112.96 L 1698.23,112.73 L 1701.16,112.65 L 1702.50,112.62 L 1705.09,112.55 L 1706.23,112.51 L 1708.41,112.44 L 1709.33,112.41 L 1711.03,112.35 L 1711.68,112.33 L 1712.84,112.28 L 1713.19,112.26 L 1713.73,112.22 L 1713.75,112.21 L 1713.86,111.85 L 1713.92,111.36 L 1713.94,111.01 L 1714.02,109.35 L 1714.04,108.20 L 1714.06,105.73 L 1714.05,104.31 L 1714.02,101.40 L 1713.99,99.90 L 1713.92,96.91 L 1713.87,95.52 L 1713.76,92.82 L 1713.70,91.71 L 1713.56,89.66 L 1713.49,89.02 L 1713.41,88.44 L 1713.37,88.26 L 1713.29,88.00 L 1713.25,88.00 L 1712.83,88.00 L 1712.22,87.99 L 1711.76,87.99 L 1710.73,87.99 L 1710.07,87.99 L 1708.64,87.99 L 1707.79,87.99 L 1705.99,87.99 L 1704.96,87.99 L 1702.81,87.99 L 1701.61,87.99 L 1699.12,87.99 L 1697.77,87.99 L 1694.98,87.99 L 1693.48,87.99 L 1687.20,87.98 L 1683.68,87.98 L 1676.43,87.98 L 1672.49,87.98 L 1664.44,87.97 L 1660.17,87.97 L 1651.50,87.97 L 1647.00,87.97 L 1581.50,87.94 L 1581.50,112.50 L 1606.50,112.76 L 1610.42,112.80 L 1612.82,112.83 L 1613.92,112.85 L 1618.06,112.91 L 1619.76,112.95 L 1622.94,113.03 L 1624.22,113.08 L 1626.57,113.19 L 1627.49,113.26 L 1629.16,113.40 L 1629.78,113.49 L 1630.89,113.68 L 1631.29,113.80 L 1631.84,114.00 L 1581.00,114.00 L 1581.00,86.00 L 1715.06,86.00 M 1278.69,100.27 L 1280.16,101.66 L 1282.81,104.52 L 1284.09,105.96 L 1285.74,108.10 L 1282.78,104.58 L 1281.06,102.78 L 1277.89,99.59 M 908.63,183.66 L 907.65,181.15 L 905.63,175.99 L 903.60,170.79 L 901.94,166.56 L 903.57,170.71 L 905.60,175.91 L 907.63,181.09 L 908.61,183.62 L 910.56,188.61 L 911.49,191.00 L 910.57,188.63 M 1282.16,176.02 L 1283.64,174.39 L 1286.52,171.06 L 1287.74,169.38 L 1288.04,168.93 L 1287.48,169.80 L 1286.32,171.48 L 1283.68,174.61 L 1282.31,176.13 L 1279.24,178.91 L 1274.18,182.68 L 1278.97,179.00 M 847.48,153.85 L 847.04,153.74 L 846.03,153.55 L 845.28,153.47 L 843.60,153.32 L 842.50,153.27 L 842.51,153.27 L 843.65,153.32 L 845.31,153.47 L 846.05,153.55 L 847.05,153.75 L 847.49,153.85 L 848.00,154.11 L 848.39,154.58 L 848.00,154.11 Z" fill="rgba(22,22,22,1)"/>
<path d="M 271.29,589.98 L 263.92,589.26 L 249.36,587.06 L 242.12,585.83 L 227.85,582.62 L 220.76,580.90 L 206.85,576.71 L 199.94,574.50 L 186.45,569.36 L 179.77,566.67 L 166.76,560.60 L 163.54,559.03 L 157.21,555.71 L 154.06,554.02 L 147.87,550.48 L 144.79,548.68 L 138.75,544.92 L 135.75,543.02 L 129.87,539.04 L 126.95,537.02 L 121.24,532.83 L 112.86,526.31 L 111.50,525.20 L 108.94,523.11 L 107.68,522.09 L 105.34,520.14 L 103.03,518.23 L 98.95,514.73 L 96.97,513.01 L 93.38,509.74 L 91.62,508.12 L 88.30,504.87 L 86.66,503.23 L 83.40,499.78 L 81.76,498.02 L 78.34,494.16 L 76.60,492.16 L 72.82,487.68 L 71.84,486.52 L 69.78,484.02 L 66.50,480.03 L 64.17,477.18 L 59.68,471.35 L 57.47,468.43 L 53.23,462.46 L 51.14,459.45 L 47.14,453.33 L 45.17,450.25 L 41.41,443.98 L 39.56,440.83 L 36.04,434.41 L 34.32,431.18 L 31.04,424.61 L 29.43,421.30 L 26.40,414.58 L 24.91,411.20 L 22.12,404.33 L 20.75,400.88 L 18.20,393.85 L 16.95,390.32 L 14.64,383.15 L 13.52,379.55 L 11.45,372.22 L 10.45,368.54 L 8.62,361.07 L 7.73,357.32 L 6.15,349.69 L 5.38,345.86 L 4.04,338.09 L 3.40,334.18 L 2.29,326.26 L 0.91,314.20 L 0.71,312.20 L 0.43,307.93 L 0.31,305.75 L 0.18,301.18 L 0.08,296.55 L 0.32,286.82 L 0.51,281.93 L 1.30,272.22 L 1.53,269.83 L 2.08,265.18 L 3.06,258.50 L 3.87,253.63 L 5.61,244.36 L 6.50,239.80 L 8.42,231.10 L 9.40,226.81 L 11.54,218.57 L 12.63,214.50 L 15.01,206.64 L 16.23,202.74 L 18.88,195.15 L 20.24,191.39 L 23.19,183.98 L 24.70,180.29 L 27.98,172.98 L 33.30,162.00 L 34.36,159.92 L 36.81,155.43 L 38.09,153.14 L 40.90,148.34 L 43.79,143.49 L 50.20,133.53 L 51.82,131.07 L 55.09,126.29 L 56.73,123.93 L 59.95,119.46 L 61.54,117.28 L 64.60,113.28 L 68.91,108.00 L 71.14,105.39 L 76.04,99.68 L 77.21,98.32 L 79.29,95.89 L 79.78,95.32 L 80.65,94.30 L 81.77,93.00 L 82.92,91.66 L 85.91,88.56 L 87.50,86.95 L 91.23,83.42 L 93.18,81.61 L 97.50,77.78 L 99.71,75.85 L 104.45,71.87 L 109.26,67.87 L 119.45,60.00 L 121.98,58.08 L 126.99,54.46 L 134.23,49.45 L 137.91,47.01 L 145.61,42.31 L 149.51,40.00 L 157.61,35.59 L 161.71,33.43 L 170.12,29.35 L 174.35,27.35 L 182.99,23.63 L 187.32,21.82 L 196.09,18.50 L 200.49,16.89 L 209.30,14.00 L 213.71,12.62 L 222.48,10.21 L 235.50,7.16 L 238.61,6.52 L 244.38,5.40 L 247.19,4.87 L 252.47,3.95 L 255.07,3.52 L 260.01,2.80 L 262.45,2.46 L 267.20,1.91 L 271.93,1.40 L 281.45,0.83 L 283.88,0.72 L 288.95,0.60 L 297.00,0.53 L 300.20,0.53 L 306.19,0.63 L 309.09,0.69 L 314.21,0.89 L 315.42,0.94 L 317.60,1.07 L 318.65,1.13 L 320.50,1.28 L 321.37,1.35 L 322.82,1.51 L 324.50,1.77 L 324.91,1.86 L 325.97,2.06 L 326.53,2.17 L 327.86,2.41 L 329.23,2.66 L 332.56,3.25 L 343.50,5.09 L 348.95,5.96 L 359.60,8.12 L 364.89,9.26 L 375.26,11.95 L 380.41,13.37 L 390.53,16.63 L 395.57,18.33 L 405.49,22.16 L 410.43,24.16 L 420.21,28.59 L 425.08,30.88 L 434.75,35.94 L 439.58,38.54 L 449.19,44.23 L 463.60,53.50 L 464.72,54.26 L 467.10,55.96 L 468.31,56.83 L 470.83,58.73 L 473.37,60.68 L 478.79,65.09 L 481.54,67.36 L 487.20,72.28 L 490.04,74.78 L 495.74,80.03 L 498.58,82.67 L 504.13,88.06 L 506.86,90.75 L 512.05,96.09 L 514.58,98.73 L 519.21,103.83 L 525.30,111.02 L 529.34,116.07 L 536.90,126.48 L 540.58,131.74 L 547.42,142.58 L 550.74,148.05 L 556.84,159.30 L 559.80,164.97 L 565.16,176.60 L 567.75,182.46 L 572.37,194.46 L 574.59,200.51 L 578.46,212.87 L 580.30,219.09 L 583.41,231.78 L 587.21,251.19 L 587.69,254.07 L 588.35,259.17 L 588.50,260.45 L 588.74,263.11 L 588.85,264.47 L 589.02,267.43 L 589.10,268.96 L 589.22,272.42 L 589.27,274.24 L 589.35,278.40 L 589.38,280.59 L 589.42,285.66 L 589.43,286.99 L 589.44,289.86 L 589.45,294.50 L 589.45,297.04 L 589.44,301.77 L 589.43,304.07 L 589.39,308.32 L 589.36,310.39 L 589.29,314.17 L 589.26,316.01 L 589.16,319.34 L 589.10,320.95 L 588.97,323.84 L 588.90,325.23 L 588.74,327.69 L 588.66,328.87 L 588.47,330.91 L 588.15,333.50 L 587.24,339.55 L 585.09,351.13 L 583.95,356.85 L 581.30,367.92 L 579.92,373.40 L 576.74,384.12 L 571.32,400.00 L 570.81,401.36 L 569.44,404.72 L 568.70,406.49 L 566.95,410.49 L 566.03,412.54 L 564.04,416.89 L 563.02,419.09 L 560.90,423.53 L 559.84,425.74 L 557.73,430.02 L 556.69,432.11 L 554.72,435.94 L 553.77,437.77 L 552.06,440.90 L 551.66,441.62 L 550.92,442.89 L 549.95,444.50 L 548.83,446.24 L 546.70,449.55 L 545.65,451.17 L 543.63,454.25 L 541.63,457.27 L 537.90,462.75 L 536.06,465.41 L 532.55,470.29 L 530.80,472.67 L 527.36,477.14 L 525.63,479.33 L 522.12,483.56 L 520.34,485.66 L 516.61,489.83 L 514.71,491.93 L 510.63,496.23 L 503.94,503.03 L 501.59,505.38 L 497.30,509.58 L 495.21,511.62 L 491.34,515.28 L 489.44,517.06 L 485.84,520.30 L 484.06,521.88 L 480.59,524.83 L 477.13,527.73 L 469.97,533.14 L 468.11,534.50 L 464.15,537.29 L 457.71,541.67 L 453.12,544.73 L 443.66,550.46 L 438.89,553.26 L 429.07,558.45 L 424.12,560.98 L 413.98,565.63 L 408.87,567.88 L 398.44,571.96 L 393.19,573.93 L 382.50,577.43 L 377.13,579.11 L 366.23,582.03 L 360.76,583.41 L 349.67,585.72 L 332.88,588.49 L 332.02,588.61 L 330.07,588.83 L 329.05,588.94 L 326.81,589.15 L 324.52,589.35 L 319.26,589.69 L 316.55,589.85 L 310.72,590.11 L 307.77,590.23 L 301.71,590.40 L 298.69,590.48 L 292.76,590.55 L 289.83,590.57 L 284.36,590.53 L 281.71,590.50 L 277.03,590.35 L 275.93,590.30 L 273.93,590.19 L 272.97,590.12 M 128.54,344.50 L 131.81,341.23 L 138.13,334.96 L 141.24,331.87 L 147.12,326.06 L 150.00,323.22 L 155.31,317.99 L 156.60,316.73 L 159.05,314.33 L 160.25,313.16 L 162.50,310.95 L 163.61,309.88 L 165.66,307.88 L 166.66,306.91 L 168.49,305.14 L 169.38,304.29 L 170.97,302.75 L 171.74,302.02 L 173.08,300.75 L 173.71,300.15 L 174.78,299.14 L 175.28,298.68 L 176.06,297.97 L 176.41,297.65 L 176.89,297.25 L 177.24,297.00 L 177.41,297.00 L 177.88,297.19 L 178.16,297.34 L 179.03,297.97 L 179.54,298.37 L 181.06,299.67 L 181.49,300.05 L 182.50,300.96 L 183.04,301.44 L 184.29,302.59 L 184.95,303.20 L 186.48,304.62 L 187.27,305.36 L 189.09,307.07 L 190.04,307.96 L 192.18,309.98 L 193.29,311.04 L 195.79,313.41 L 197.08,314.64 L 199.96,317.37 L 201.45,318.79 L 204.74,321.93 L 206.43,323.55 L 210.16,327.11 L 216.28,332.95 L 218.19,334.78 L 221.88,338.29 L 223.70,340.02 L 227.15,343.29 L 228.84,344.89 L 231.97,347.83 L 233.49,349.26 L 236.22,351.81 L 237.53,353.03 L 239.78,355.12 L 240.84,356.09 L 242.53,357.63 L 243.30,358.33 L 244.36,359.26 L 245.15,359.87 L 245.19,359.89 L 245.58,359.59 L 245.83,359.40 L 246.62,358.70 L 247.07,358.30 L 248.24,357.22 L 248.87,356.63 L 250.41,355.19 L 251.22,354.42 L 253.09,352.63 L 254.07,351.70 L 256.26,349.59 L 257.39,348.50 L 259.88,346.08 L 261.15,344.84 L 263.91,342.15 L 265.33,340.77 L 268.34,337.82 L 269.87,336.32 L 273.12,333.13 L 274.77,331.50 L 278.22,328.10 L 279.98,326.37 L 283.62,322.76 L 287.31,319.11 L 295.16,311.31 L 307.48,299.02 L 310.83,295.67 L 317.00,289.50 L 320.01,286.50 L 325.51,281.01 L 328.19,278.34 L 333.06,273.49 L 335.43,271.14 L 339.72,266.88 L 341.79,264.82 L 345.53,261.13 L 347.34,259.35 L 350.57,256.19 L 352.12,254.67 L 354.88,251.99 L 356.20,250.71 L 358.52,248.49 L 359.63,247.43 L 361.56,245.62 L 362.47,244.77 L 364.04,243.34 L 364.78,242.67 L 366.03,241.59 L 366.62,241.09 L 367.59,240.31 L 368.04,239.96 L 368.76,239.45 L 369.10,239.23 L 369.62,238.95 L 370.61,238.82 L 370.68,238.86 L 371.17,239.29 L 371.47,239.57 L 372.43,240.47 L 372.96,240.98 L 374.35,242.32 L 375.10,243.04 L 376.90,244.79 L 377.85,245.72 L 380.04,247.86 L 381.18,248.98 L 383.74,251.49 L 385.06,252.79 L 387.95,255.64 L 389.43,257.11 L 392.63,260.28 L 394.27,261.90 L 397.76,265.36 L 399.54,267.13 L 403.30,270.86 L 405.21,272.75 L 409.20,276.73 L 411.23,278.74 L 415.43,282.93 L 419.69,287.17 L 428.74,296.21 L 442.93,310.40 L 446.09,313.57 L 452.07,319.55 L 455.00,322.48 L 460.51,327.98 L 463.21,330.67 L 468.27,335.71 L 470.74,338.18 L 475.36,342.77 L 477.62,345.00 L 481.80,349.15 L 483.85,351.17 L 487.62,354.88 L 489.45,356.69 L 492.81,359.98 L 494.44,361.58 L 497.41,364.46 L 498.84,365.86 L 501.42,368.34 L 502.66,369.54 L 504.86,371.63 L 505.92,372.64 L 507.76,374.36 L 508.63,375.17 L 510.12,376.52 L 510.82,377.15 L 511.96,378.15 L 512.49,378.60 L 513.30,379.25 L 513.67,379.54 L 514.16,379.85 L 514.55,379.96 L 514.72,379.82 L 515.13,379.24 L 515.35,378.91 L 515.83,377.98 L 516.09,377.47 L 516.64,376.23 L 516.92,375.57 L 517.52,374.05 L 518.14,372.47 L 519.48,368.63 L 520.16,366.62 L 521.57,362.16 L 522.97,357.60 L 525.57,347.90 L 526.17,345.53 L 527.20,341.01 L 528.42,334.87 L 528.75,332.90 L 529.32,329.37 L 529.59,327.67 L 530.03,324.54 L 530.44,321.47 L 530.96,315.67 L 531.06,314.19 L 531.21,311.06 L 531.28,309.46 L 531.36,305.94 L 531.40,304.12 L 531.42,300.02 L 531.42,293.00 L 531.41,290.19 L 531.30,284.93 L 531.24,282.35 L 531.01,277.46 L 530.88,275.06 L 530.53,270.44 L 530.33,268.15 L 529.83,263.70 L 529.29,259.26 L 527.72,250.43 L 527.28,248.18 L 526.26,243.58 L 524.51,236.37 L 524.13,234.87 L 523.41,232.14 L 523.05,230.80 L 522.35,228.32 L 521.66,225.88 L 520.17,221.25 L 519.38,218.91 L 517.48,213.78 L 516.97,212.42 L 515.81,209.45 L 513.83,204.50 L 513.43,203.51 L 512.28,200.95 L 511.65,199.59 L 510.12,196.44 L 509.32,194.82 L 507.52,191.29 L 506.59,189.50 L 504.64,185.80 L 502.66,182.10 L 498.68,175.01 L 497.73,173.33 L 495.94,170.32 L 493.56,166.50 L 491.64,163.55 L 487.58,157.79 L 485.52,154.93 L 481.20,149.35 L 479.00,146.59 L 474.43,141.21 L 472.11,138.55 L 467.29,133.37 L 464.85,130.82 L 459.80,125.86 L 457.24,123.41 L 451.97,118.68 L 449.31,116.34 L 443.84,111.85 L 441.08,109.63 L 435.41,105.37 L 432.55,103.28 L 426.70,99.27 L 423.75,97.30 L 417.73,93.56 L 414.70,91.72 L 408.52,88.25 L 405.41,86.55 L 399.09,83.35 L 395.91,81.79 L 389.45,78.88 L 386.21,77.46 L 379.63,74.85 L 376.33,73.58 L 369.64,71.27 L 359.50,68.16 L 353.86,66.58 L 342.43,64.05 L 336.69,62.90 L 325.13,61.25 L 319.33,60.53 L 307.68,59.74 L 301.85,59.46 L 290.16,59.53 L 284.32,59.68 L 272.66,60.62 L 266.84,61.20 L 255.25,63.01 L 249.47,64.02 L 238.01,66.68 L 221.02,71.65 L 215.38,73.53 L 204.37,77.91 L 198.91,80.19 L 188.31,85.36 L 183.06,88.03 L 172.91,93.95 L 167.89,97.01 L 158.24,103.65 L 153.47,107.06 L 144.35,114.40 L 139.87,118.15 L 131.33,126.16 L 127.14,130.24 L 119.23,138.87 L 108.12,152.50 L 106.02,155.28 L 102.07,160.82 L 100.14,163.59 L 96.50,169.12 L 94.72,171.89 L 91.38,177.45 L 89.74,180.23 L 86.68,185.84 L 85.18,188.65 L 82.38,194.34 L 81.02,197.20 L 78.46,203.01 L 77.22,205.93 L 74.90,211.88 L 71.66,221.00 L 70.59,224.19 L 68.70,230.42 L 67.79,233.51 L 66.20,239.62 L 65.44,242.66 L 64.13,248.70 L 63.51,251.72 L 62.48,257.77 L 62.00,260.81 L 61.23,266.94 L 60.88,270.02 L 60.36,276.30 L 60.13,279.46 L 59.86,285.95 L 59.72,296.00 L 59.72,298.45 L 59.80,303.03 L 59.85,305.27 L 60.03,309.52 L 60.23,313.71 L 61.00,321.64 L 61.45,325.61 L 62.80,333.82 L 63.17,335.93 L 64.06,340.38 L 65.58,347.50 L 65.75,348.26 L 66.18,350.00 L 66.41,350.91 L 66.94,352.90 L 67.49,354.95 L 68.82,359.58 L 70.21,364.32 L 73.39,374.31 L 74.17,376.71 L 75.67,381.12 L 76.04,382.18 L 76.72,384.13 L 77.06,385.07 L 77.68,386.76 L 77.98,387.56 L 78.52,388.93 L 78.78,389.58 L 79.22,390.59 L 79.43,391.04 L 79.75,391.63 L 80.09,392.00 L 80.12,392.00 L 80.42,391.75 L 80.61,391.59 L 81.22,391.03 L 81.57,390.71 L 82.48,389.86 L 82.97,389.39 L 84.16,388.25 L 84.79,387.65 L 86.24,386.25 L 87.00,385.51 L 88.70,383.86 L 89.58,383.00 L 91.51,381.12 L 92.50,380.15 L 94.65,378.05 L 95.74,376.97 L 98.09,374.67 L 99.28,373.50 L 101.80,371.01 L 104.37,368.48 L 109.97,362.94 L 112.84,360.10 L 118.95,354.04 L 122.05,350.96 M 646.00,296.50 L 646.00,33.92 L 654.25,34.21 L 662.50,34.50 L 662.50,296.50 L 662.50,558.50 L 654.25,558.79 L 646.00,559.08 L 646.00,296.50 M 967.09,516.95 L 965.53,516.54 L 962.30,515.44 L 960.67,514.85 L 957.38,513.41 L 955.74,512.66 L 952.46,510.94 L 950.82,510.05 L 947.62,508.08 L 946.04,507.08 L 942.98,504.91 L 941.48,503.81 L 938.64,501.50 L 937.26,500.32 L 934.71,497.89 L 931.28,494.18 L 930.01,492.65 L 927.70,489.70 L 926.59,488.23 L 924.57,485.34 L 922.62,482.45 L 919.44,476.58 L 918.69,475.08 L 917.34,471.99 L 916.69,470.42 L 915.50,467.12 L 914.92,465.45 L 913.86,461.89 L 912.38,456.20 L 912.11,455.07 L 911.65,453.06 L 911.43,452.09 L 911.08,450.34 L 910.76,448.63 L 910.38,445.63 L 910.23,444.13 L 910.16,441.03 L 910.16,440.21 L 910.20,438.45 L 910.33,435.50 L 910.40,434.12 L 910.58,431.38 L 910.67,430.03 L 910.87,427.56 L 910.98,426.38 L 911.18,424.45 L 911.46,422.50 L 911.98,420.00 L 913.36,415.04 L 914.10,412.57 L 915.90,407.72 L 916.85,405.31 L 919.03,400.64 L 920.17,398.33 L 922.69,393.90 L 924.00,391.73 L 926.83,387.60 L 928.28,385.59 L 931.38,381.84 L 932.95,380.02 L 936.28,376.70 L 941.48,372.30 L 943.07,371.10 L 946.26,368.93 L 947.86,367.89 L 951.07,366.03 L 952.68,365.14 L 955.93,363.57 L 957.57,362.82 L 960.90,361.55 L 962.57,360.94 L 966.00,359.94 L 967.74,359.47 L 971.30,358.73 L 973.10,358.39 L 976.82,357.91 L 982.61,357.46 L 985.53,357.32 L 991.26,357.58 L 994.10,357.80 L 999.64,358.74 L 1002.38,359.30 L 1007.71,360.91 L 1010.34,361.80 L 1015.41,364.06 L 1017.91,365.27 L 1022.69,368.17 L 1025.05,369.70 L 1029.51,373.21 L 1031.70,375.05 L 1035.82,379.16 L 1041.55,386.00 L 1042.98,387.92 L 1045.60,391.82 L 1046.86,393.78 L 1049.12,397.75 L 1050.21,399.74 L 1052.12,403.78 L 1053.04,405.81 L 1054.61,409.92 L 1055.35,411.99 L 1056.57,416.17 L 1057.13,418.27 L 1058.01,422.51 L 1058.40,424.64 L 1058.92,428.96 L 1059.31,435.50 L 1059.34,437.39 L 1059.31,440.93 L 1059.28,442.67 L 1059.10,445.97 L 1058.88,449.22 L 1057.96,455.20 L 1057.41,458.15 L 1055.76,463.89 L 1052.37,472.70 L 1051.43,474.82 L 1049.16,479.04 L 1047.96,481.14 L 1045.21,485.25 L 1043.79,487.29 L 1040.66,491.22 L 1039.05,493.16 L 1035.59,496.85 L 1033.83,498.65 L 1030.13,502.00 L 1028.26,503.63 L 1024.38,506.58 L 1022.43,508.00 L 1018.46,510.47 L 1012.47,513.56 L 1010.86,514.27 L 1007.40,515.49 L 1005.63,516.06 L 1001.92,517.01 L 1000.04,517.44 L 996.16,518.10 L 994.20,518.40 L 990.22,518.77 L 988.23,518.92 L 984.23,519.00 L 982.24,519.00 L 978.30,518.77 L 976.35,518.62 L 972.55,518.09 L 970.67,517.79 M 998.20,507.87 L 999.76,507.54 L 1002.91,506.58 L 1004.49,506.06 L 1007.63,504.74 L 1009.20,504.03 L 1012.30,502.37 L 1013.84,501.50 L 1016.86,499.52 L 1018.36,498.50 L 1021.25,496.24 L 1022.68,495.08 L 1025.41,492.56 L 1026.75,491.27 L 1029.28,488.53 L 1032.80,484.18 L 1034.17,482.33 L 1036.61,478.66 L 1037.78,476.83 L 1039.84,473.17 L 1040.82,471.34 L 1042.52,467.63 L 1043.32,465.77 L 1044.65,461.99 L 1045.28,460.08 L 1046.28,456.17 L 1046.74,454.19 L 1047.41,450.10 L 1047.71,448.04 L 1048.07,443.74 L 1048.28,437.00 L 1048.27,435.40 L 1048.18,432.43 L 1048.12,430.98 L 1047.89,428.26 L 1047.62,425.58 L 1046.56,420.52 L 1046.24,419.25 L 1045.45,416.66 L 1045.02,415.34 L 1043.99,412.60 L 1043.45,411.20 L 1042.16,408.20 L 1039.90,403.31 L 1038.93,401.29 L 1037.20,398.00 L 1036.35,396.45 L 1034.64,393.80 L 1033.77,392.51 L 1031.80,390.10 L 1028.26,386.28 L 1026.33,384.32 L 1022.37,380.88 L 1020.37,379.23 L 1016.25,376.38 L 1014.16,375.03 L 1009.81,372.75 L 1003.00,369.93 L 1001.72,369.48 L 999.32,368.82 L 998.12,368.52 L 995.58,368.12 L 994.26,367.95 L 991.18,367.74 L 990.36,367.70 L 988.54,367.65 L 985.50,367.61 L 982.42,367.59 L 976.89,367.98 L 974.20,368.24 L 969.27,369.25 L 966.86,369.83 L 962.27,371.51 L 955.48,374.87 L 952.78,376.43 L 947.74,380.25 L 945.29,382.26 L 940.79,386.87 L 938.62,389.26 L 934.74,394.54 L 932.89,397.25 L 929.68,403.07 L 928.17,406.03 L 925.71,412.27 L 924.58,415.42 L 922.93,421.94 L 922.21,425.23 L 921.43,431.90 L 921.31,441.96 L 921.40,443.50 L 921.64,446.35 L 921.78,447.74 L 922.12,450.36 L 922.49,452.93 L 923.61,457.71 L 924.25,460.08 L 926.04,464.92 L 926.53,466.16 L 927.67,468.77 L 929.64,472.93 L 930.43,474.55 L 932.23,477.70 L 933.15,479.25 L 935.19,482.25 L 936.24,483.72 L 938.50,486.53 L 939.66,487.92 L 942.12,490.53 L 943.37,491.80 L 946.01,494.19 L 947.35,495.35 L 950.14,497.49 L 951.56,498.53 L 954.48,500.40 L 959.00,502.88 L 961.34,504.03 L 966.32,506.08 L 967.50,506.53 L 969.58,507.25 L 972.00,507.91 L 972.83,508.07 L 974.77,508.33 L 975.79,508.45 L 978.02,508.63 L 980.32,508.78 L 985.30,508.86 L 987.78,508.85 L 992.47,508.60 L 993.58,508.52 L 995.60,508.30 L 996.56,508.18 M 867.99,481.75 L 867.99,479.26 L 867.97,474.42 L 867.96,472.04 L 867.93,467.50 L 867.92,465.27 L 867.87,461.13 L 867.85,459.12 L 867.80,455.48 L 867.77,453.74 L 867.71,450.71 L 867.67,449.29 L 867.60,446.98 L 867.57,445.92 L 867.49,444.43 L 867.37,443.24 L 866.76,440.98 L 816.13,441.24 L 765.50,441.50 L 765.24,479.25 L 764.98,517.00 L 760.50,517.00 L 756.02,517.00 L 755.76,438.45 L 755.75,435.41 L 755.74,429.55 L 755.73,426.65 L 755.72,421.09 L 755.72,418.35 L 755.71,413.10 L 755.71,410.51 L 755.72,405.59 L 755.72,403.17 L 755.73,398.57 L 755.74,396.32 L 755.75,392.07 L 755.76,389.99 L 755.78,386.10 L 755.80,384.20 L 755.82,380.68 L 755.84,378.96 L 755.87,375.82 L 755.89,374.29 L 755.93,371.54 L 755.95,370.21 L 756.00,367.85 L 756.02,366.72 L 756.07,364.78 L 756.10,363.86 L 756.15,362.34 L 756.18,361.63 L 756.24,360.54 L 756.28,360.05 L 756.34,359.41 L 756.45,358.95 L 756.58,358.82 L 757.16,358.58 L 757.49,358.47 L 758.38,358.28 L 761.70,358.00 L 766.00,358.00 L 766.00,394.48 L 766.00,430.96 L 768.25,431.52 L 768.36,431.55 L 768.84,431.60 L 769.13,431.62 L 769.93,431.66 L 770.38,431.69 L 771.49,431.72 L 772.08,431.74 L 773.47,431.77 L 774.92,431.80 L 778.58,431.85 L 780.52,431.87 L 785.01,431.89 L 787.34,431.90 L 792.48,431.90 L 795.11,431.90 L 800.72,431.88 L 806.41,431.86 L 818.45,431.77 L 824.46,431.72 L 836.06,431.58 L 838.87,431.54 L 844.15,431.45 L 846.72,431.41 L 851.40,431.31 L 853.65,431.27 L 857.55,431.16 L 859.38,431.11 L 862.32,431.01 L 862.99,430.98 L 864.11,430.92 L 864.63,430.90 L 865.45,430.84 L 865.82,430.81 L 866.31,430.75 L 866.67,430.67 L 866.72,430.61 L 866.84,429.77 L 866.91,429.24 L 867.03,427.53 L 867.09,426.58 L 867.22,424.09 L 867.28,422.76 L 867.40,419.60 L 867.46,417.95 L 867.58,414.22 L 867.63,412.29 L 867.74,408.08 L 867.79,405.93 L 867.88,401.35 L 868.00,394.17 L 868.50,358.50 L 873.50,358.50 L 878.50,358.50 L 878.76,436.89 L 878.77,440.46 L 878.79,447.18 L 878.79,450.48 L 878.81,456.67 L 878.81,459.69 L 878.82,465.36 L 878.82,468.13 L 878.81,473.29 L 878.81,475.81 L 878.80,480.48 L 878.80,482.76 L 878.78,486.95 L 878.77,488.98 L 878.74,492.71 L 878.73,494.52 L 878.70,497.80 L 878.68,499.38 L 878.64,502.23 L 878.62,503.60 L 878.57,506.02 L 878.54,507.18 L 878.49,509.20 L 878.46,510.16 L 878.39,511.79 L 878.36,512.55 L 878.29,513.80 L 878.25,514.38 L 878.16,515.27 L 878.12,515.67 L 878.03,516.21 L 877.88,516.64 L 877.72,516.83 L 877.10,517.18 L 876.75,517.34 L 875.82,517.61 L 872.38,518.00 L 868.00,518.00 L 867.99,481.75 M 1091.71,517.38 L 1091.69,517.35 L 1091.64,516.90 L 1091.62,516.60 L 1091.57,515.63 L 1091.55,515.08 L 1091.50,513.61 L 1091.48,512.82 L 1091.44,510.89 L 1091.41,509.87 L 1091.37,507.50 L 1091.35,506.27 L 1091.31,503.49 L 1091.30,502.05 L 1091.26,498.89 L 1091.24,497.27 L 1091.21,493.75 L 1091.19,491.95 L 1091.16,488.11 L 1091.15,486.15 L 1091.12,482.00 L 1091.10,477.78 L 1091.06,468.56 L 1091.04,463.84 L 1091.01,453.77 L 1091.00,437.94 L 1091.00,435.20 L 1091.00,430.00 L 1091.00,427.45 L 1090.99,422.61 L 1090.99,420.23 L 1090.99,415.73 L 1090.99,413.53 L 1090.99,409.36 L 1090.99,407.31 L 1090.99,403.47 L 1090.99,401.58 L 1090.99,398.04 L 1090.99,396.30 L 1091.00,393.06 L 1091.00,391.47 L 1091.02,388.50 L 1091.03,385.60 L 1091.08,380.59 L 1091.11,378.21 L 1091.19,374.16 L 1091.24,372.24 L 1091.37,369.05 L 1091.44,367.55 L 1091.62,365.12 L 1091.72,364.00 L 1091.96,362.22 L 1092.09,361.41 L 1092.40,360.20 L 1092.57,359.65 L 1092.96,358.90 L 1093.16,358.57 L 1093.64,358.17 L 1094.15,357.85 L 1095.45,357.84 L 1097.93,358.00 L 1098.51,358.00 L 1099.49,358.05 L 1099.96,358.09 L 1100.80,358.30 L 1101.21,358.44 L 1102.00,358.92 L 1102.40,359.21 L 1103.24,360.09 L 1103.67,360.59 L 1104.66,361.96 L 1105.18,362.72 L 1106.41,364.71 L 1107.06,365.79 L 1108.63,368.50 L 1111.48,373.50 L 1112.41,375.15 L 1114.61,378.99 L 1115.74,380.96 L 1118.11,385.06 L 1119.29,387.10 L 1121.56,390.98 L 1124.52,396.00 L 1124.94,396.72 L 1125.95,398.42 L 1126.47,399.30 L 1127.62,401.26 L 1128.81,403.28 L 1131.46,407.82 L 1132.81,410.13 L 1135.55,414.85 L 1139.40,421.50 L 1140.58,423.56 L 1142.82,427.44 L 1143.90,429.31 L 1145.77,432.53 L 1146.20,433.28 L 1146.96,434.59 L 1147.32,435.21 L 1147.92,436.23 L 1148.19,436.70 L 1148.60,437.39 L 1148.96,438.00 L 1149.09,438.21 L 1149.73,439.29 L 1150.11,439.93 L 1151.15,441.70 L 1151.71,442.65 L 1153.01,444.89 L 1155.11,448.50 L 1156.39,450.70 L 1158.63,454.53 L 1159.69,456.35 L 1161.52,459.47 L 1162.39,460.95 L 1163.85,463.42 L 1164.55,464.59 L 1165.69,466.47 L 1166.22,467.35 L 1167.07,468.72 L 1167.46,469.35 L 1168.07,470.26 L 1168.34,470.66 L 1168.73,471.18 L 1169.12,471.58 L 1169.21,471.63 L 1169.56,471.39 L 1169.76,471.20 L 1170.42,470.36 L 1170.79,469.85 L 1171.85,468.25 L 1172.15,467.79 L 1172.83,466.72 L 1173.19,466.15 L 1174.00,464.83 L 1174.42,464.14 L 1175.38,462.56 L 1175.88,461.73 L 1177.00,459.87 L 1177.58,458.91 L 1178.86,456.75 L 1179.52,455.63 L 1180.99,453.15 L 1181.74,451.87 L 1183.40,449.06 L 1184.25,447.61 L 1186.11,444.44 L 1187.07,442.81 L 1189.15,439.26 L 1192.51,433.50 L 1193.72,431.44 L 1196.17,427.24 L 1197.38,425.17 L 1199.65,421.29 L 1200.19,420.36 L 1201.20,418.64 L 1201.68,417.81 L 1202.55,416.32 L 1202.97,415.61 L 1203.67,414.41 L 1204.49,413.00 L 1204.71,412.62 L 1205.33,411.57 L 1205.66,411.00 L 1206.47,409.60 L 1206.90,408.87 L 1207.88,407.19 L 1208.38,406.32 L 1209.49,404.42 L 1210.62,402.47 L 1213.13,398.15 L 1216.98,391.50 L 1219.53,387.10 L 1224.87,377.91 L 1226.12,375.75 L 1228.31,371.98 L 1228.81,371.11 L 1229.70,369.59 L 1230.81,367.69 L 1231.43,366.62 L 1232.72,364.58 L 1233.36,363.59 L 1234.57,361.88 L 1235.15,361.08 L 1236.13,359.89 L 1237.22,358.88 L 1237.47,358.75 L 1238.27,358.52 L 1238.71,358.42 L 1239.77,358.27 L 1243.29,358.19 L 1247.50,358.50 L 1247.76,436.89 L 1247.77,440.46 L 1247.79,447.18 L 1247.79,450.48 L 1247.81,456.67 L 1247.81,459.69 L 1247.82,465.36 L 1247.82,468.13 L 1247.81,473.29 L 1247.81,475.81 L 1247.80,480.48 L 1247.80,482.76 L 1247.78,486.95 L 1247.77,488.98 L 1247.74,492.71 L 1247.73,494.52 L 1247.70,497.80 L 1247.68,499.38 L 1247.64,502.23 L 1247.62,503.60 L 1247.57,506.02 L 1247.54,507.18 L 1247.49,509.20 L 1247.46,510.16 L 1247.39,511.79 L 1247.36,512.55 L 1247.29,513.80 L 1247.25,514.38 L 1247.16,515.27 L 1247.12,515.67 L 1247.03,516.21 L 1246.88,516.64 L 1246.72,516.83 L 1246.10,517.18 L 1245.75,517.34 L 1244.82,517.61 L 1241.38,518.00 L 1237.00,518.00 L 1236.88,452.75 L 1236.88,448.26 L 1236.86,439.62 L 1236.85,435.37 L 1236.82,427.34 L 1236.81,423.41 L 1236.78,416.16 L 1236.77,412.65 L 1236.73,406.37 L 1236.73,404.87 L 1236.71,402.08 L 1236.70,400.73 L 1236.69,398.24 L 1236.68,397.04 L 1236.66,394.88 L 1236.65,393.85 L 1236.64,392.04 L 1236.63,391.18 L 1236.61,389.74 L 1236.60,389.07 L 1236.59,388.03 L 1236.58,387.56 L 1236.56,386.94 L 1236.54,386.50 L 1236.47,386.22 L 1236.32,385.06 L 1236.12,383.00 L 1236.08,382.43 L 1235.98,381.70 L 1235.93,381.40 L 1235.76,381.17 L 1235.66,381.12 L 1235.34,381.36 L 1234.64,382.20 L 1234.60,382.26 L 1234.35,382.65 L 1234.21,382.88 L 1233.76,383.61 L 1233.52,384.01 L 1232.89,385.06 L 1232.55,385.62 L 1231.74,386.97 L 1231.32,387.68 L 1230.35,389.32 L 1229.84,390.17 L 1228.71,392.07 L 1228.13,393.06 L 1226.86,395.21 L 1226.21,396.31 L 1224.81,398.69 L 1223.37,401.13 L 1220.15,406.61 L 1218.48,409.44 L 1214.87,415.61 L 1213.02,418.76 L 1209.10,425.46 L 1202.97,435.95 L 1201.22,438.95 L 1198.02,444.43 L 1196.46,447.10 L 1193.62,451.95 L 1192.24,454.30 L 1189.75,458.55 L 1188.54,460.61 L 1186.35,464.30 L 1185.30,466.08 L 1183.41,469.26 L 1182.50,470.78 L 1180.87,473.48 L 1180.09,474.77 L 1178.71,477.02 L 1178.05,478.10 L 1176.88,479.95 L 1176.33,480.82 L 1175.36,482.31 L 1174.89,483.01 L 1174.09,484.17 L 1173.71,484.71 L 1173.05,485.58 L 1172.74,485.98 L 1172.20,486.61 L 1171.69,487.17 L 1170.92,487.73 L 1169.95,488.00 L 1169.22,488.00 L 1167.64,487.49 L 1165.79,486.25 L 1165.69,486.13 L 1165.26,485.50 L 1165.01,485.13 L 1164.32,484.03 L 1163.94,483.43 L 1163.01,481.93 L 1162.53,481.14 L 1161.41,479.29 L 1160.83,478.32 L 1159.55,476.18 L 1158.90,475.08 L 1157.50,472.71 L 1153.00,465.00 L 1150.21,460.16 L 1144.29,449.99 L 1141.27,444.81 L 1134.89,433.91 L 1131.64,428.37 L 1124.77,416.71 L 1113.89,398.30 L 1113.09,396.96 L 1111.66,394.46 L 1110.97,393.25 L 1109.74,391.07 L 1109.14,390.03 L 1108.10,388.25 L 1107.60,387.41 L 1106.73,386.09 L 1106.31,385.49 L 1105.59,384.70 L 1105.25,384.38 L 1104.67,384.18 L 1104.39,384.16 L 1103.94,384.63 L 1103.72,384.95 L 1103.37,386.15 L 1103.21,386.85 L 1102.95,388.85 L 1102.83,389.95 L 1102.65,392.82 L 1102.56,394.37 L 1102.44,398.18 L 1102.38,400.20 L 1102.30,405.01 L 1102.29,406.28 L 1102.26,409.02 L 1102.24,410.42 L 1102.22,413.43 L 1102.20,414.98 L 1102.18,418.27 L 1102.17,419.95 L 1102.15,423.54 L 1102.14,425.37 L 1102.12,429.26 L 1102.11,431.24 L 1102.09,435.43 L 1102.08,437.57 L 1102.05,442.08 L 1102.00,449.22 L 1101.50,517.50 L 1096.96,517.80 L 1095.72,517.88 L 1093.55,517.80 L 1093.07,517.76 L 1092.35,517.63 L 1092.03,517.56 M 1290.46,516.76 L 1290.45,516.72 L 1290.42,516.22 L 1290.40,515.91 L 1290.37,514.90 L 1290.36,514.34 L 1290.33,512.84 L 1290.32,512.03 L 1290.30,510.08 L 1290.29,509.04 L 1290.27,506.65 L 1290.26,505.40 L 1290.24,502.60 L 1290.23,501.15 L 1290.22,497.98 L 1290.21,496.34 L 1290.20,492.81 L 1290.20,491.00 L 1290.19,487.15 L 1290.18,485.18 L 1290.18,481.03 L 1290.18,476.80 L 1290.18,467.58 L 1290.18,462.86 L 1290.20,452.79 L 1290.24,437.00 L 1290.50,358.50 L 1342.31,358.24 L 1394.11,357.98 L 1393.81,362.74 L 1393.50,367.50 L 1347.25,367.76 L 1301.00,368.02 L 1301.00,399.51 L 1301.00,401.67 L 1301.01,405.84 L 1301.01,407.89 L 1301.02,411.75 L 1301.03,413.64 L 1301.04,417.12 L 1301.05,418.81 L 1301.07,421.81 L 1301.08,423.25 L 1301.11,425.70 L 1301.12,426.85 L 1301.15,428.65 L 1301.17,429.46 L 1301.20,430.53 L 1301.25,431.22 L 1301.26,431.23 L 1301.49,431.25 L 1301.63,431.26 L 1302.13,431.28 L 1302.68,431.30 L 1304.54,431.35 L 1305.58,431.38 L 1308.33,431.44 L 1309.80,431.47 L 1313.32,431.53 L 1315.17,431.57 L 1319.35,431.64 L 1321.51,431.67 L 1326.25,431.75 L 1328.67,431.79 L 1333.85,431.86 L 1341.99,431.97 L 1344.76,432.01 L 1349.76,432.07 L 1352.18,432.10 L 1356.53,432.16 L 1358.62,432.19 L 1362.34,432.25 L 1364.13,432.28 L 1367.27,432.35 L 1368.77,432.39 L 1371.38,432.48 L 1372.63,432.52 L 1374.75,432.63 L 1375.76,432.69 L 1377.44,432.83 L 1378.23,432.91 L 1379.51,433.09 L 1380.11,433.18 L 1381.04,433.40 L 1381.46,433.52 L 1382.08,433.80 L 1382.64,434.09 L 1383.01,434.85 L 1383.10,435.27 L 1382.82,436.33 L 1382.07,438.33 L 1381.05,441.00 L 1341.02,441.00 L 1301.00,441.00 L 1301.00,474.38 L 1301.00,507.77 L 1303.25,508.37 L 1303.33,508.39 L 1303.71,508.43 L 1303.95,508.45 L 1304.63,508.49 L 1305.00,508.51 L 1305.96,508.55 L 1306.48,508.57 L 1307.70,508.60 L 1308.98,508.64 L 1312.27,508.71 L 1314.02,508.74 L 1318.15,508.80 L 1320.30,508.83 L 1325.14,508.88 L 1327.63,508.90 L 1333.04,508.93 L 1335.80,508.95 L 1341.66,508.97 L 1350.81,508.99 L 1396.11,509.00 L 1395.81,513.25 L 1395.50,517.50 L 1343.22,517.76 L 1340.64,517.77 L 1335.83,517.79 L 1333.48,517.80 L 1329.12,517.82 L 1326.99,517.82 L 1323.05,517.83 L 1321.14,517.83 L 1317.61,517.83 L 1315.90,517.83 L 1312.77,517.82 L 1311.25,517.81 L 1308.48,517.79 L 1307.15,517.78 L 1304.74,517.76 L 1303.58,517.74 L 1301.50,517.71 L 1300.50,517.69 L 1298.74,517.64 L 1297.90,517.62 L 1296.44,517.57 L 1295.74,517.54 L 1294.55,517.47 L 1293.99,517.44 L 1293.06,517.36 L 1292.19,517.29 L 1291.15,517.10 L 1290.73,517.00 M 1504.50,248.42 L 1501.52,248.01 L 1496.12,247.17 L 1493.50,246.74 L 1488.73,245.83 L 1486.41,245.36 L 1482.12,244.34 L 1480.03,243.81 L 1476.08,242.63 L 1474.14,242.01 L 1470.39,240.62 L 1468.52,239.90 L 1464.83,238.26 L 1462.97,237.41 L 1459.19,235.47 L 1453.25,232.19 L 1452.39,231.70 L 1450.82,230.69 L 1450.08,230.19 L 1448.84,229.26 L 1448.27,228.81 L 1447.49,228.07 L 1447.00,227.27 L 1447.00,227.18 L 1447.13,226.77 L 1447.21,226.52 L 1447.49,225.82 L 1447.81,225.06 L 1448.83,222.84 L 1449.40,221.64 L 1450.81,218.77 L 1453.23,214.03 L 1459.46,202.10 L 1462.48,204.13 L 1463.36,204.72 L 1465.62,206.05 L 1466.83,206.73 L 1469.62,208.19 L 1471.06,208.92 L 1474.20,210.42 L 1475.79,211.17 L 1479.10,212.65 L 1480.76,213.38 L 1484.06,214.75 L 1485.70,215.41 L 1488.82,216.60 L 1490.35,217.16 L 1493.12,218.09 L 1496.68,219.11 L 1499.69,219.83 L 1506.06,220.64 L 1509.25,220.94 L 1515.48,220.93 L 1517.00,220.87 L 1519.91,220.62 L 1521.33,220.46 L 1523.98,220.01 L 1525.27,219.76 L 1527.59,219.11 L 1530.62,217.92 L 1531.67,217.40 L 1533.53,216.10 L 1534.41,215.41 L 1535.92,213.82 L 1536.63,213.00 L 1537.76,211.20 L 1538.28,210.28 L 1539.02,208.33 L 1539.34,207.34 L 1539.66,205.31 L 1539.77,204.30 L 1539.65,202.26 L 1539.54,201.25 L 1538.96,199.27 L 1537.55,196.44 L 1537.05,195.67 L 1535.89,194.27 L 1535.27,193.59 L 1533.76,192.30 L 1532.94,191.67 L 1530.93,190.43 L 1529.85,189.81 L 1527.19,188.56 L 1525.77,187.92 L 1522.30,186.58 L 1520.46,185.89 L 1516.04,184.40 L 1514.87,184.01 L 1512.33,183.19 L 1511.02,182.78 L 1508.18,181.90 L 1506.73,181.46 L 1503.58,180.51 L 1498.50,179.01 L 1495.41,178.10 L 1489.81,176.26 L 1487.11,175.34 L 1482.24,173.45 L 1479.89,172.49 L 1475.70,170.51 L 1473.69,169.50 L 1470.13,167.40 L 1468.42,166.34 L 1465.44,164.08 L 1464.02,162.94 L 1461.57,160.50 L 1460.40,159.26 L 1458.43,156.61 L 1455.95,152.37 L 1455.47,151.39 L 1454.75,149.52 L 1454.42,148.56 L 1453.96,146.45 L 1453.76,145.32 L 1453.48,142.57 L 1453.42,141.83 L 1453.32,140.15 L 1453.19,137.31 L 1453.12,135.32 L 1453.16,131.63 L 1453.22,129.82 L 1453.53,126.48 L 1453.73,124.84 L 1454.33,121.78 L 1454.67,120.29 L 1455.59,117.46 L 1456.08,116.07 L 1457.33,113.43 L 1458.00,112.12 L 1459.60,109.59 L 1460.44,108.34 L 1462.41,105.88 L 1465.81,102.19 L 1467.56,100.44 L 1471.70,97.24 L 1473.86,95.70 L 1478.65,93.02 L 1481.11,91.75 L 1486.36,89.69 L 1494.51,87.40 L 1495.97,87.10 L 1499.22,86.65 L 1500.88,86.45 L 1504.46,86.20 L 1508.09,86.00 L 1515.83,86.18 L 1519.70,86.36 L 1527.17,87.26 L 1528.97,87.53 L 1532.36,88.19 L 1537.00,89.38 L 1538.10,89.71 L 1540.65,90.61 L 1541.97,91.10 L 1544.82,92.23 L 1547.71,93.40 L 1553.58,96.07 L 1555.00,96.74 L 1557.62,98.04 L 1558.89,98.68 L 1561.07,99.86 L 1562.08,100.43 L 1563.63,101.41 L 1565.05,102.56 L 1565.27,102.82 L 1565.31,103.76 L 1565.28,104.04 L 1565.10,104.74 L 1565.00,105.12 L 1564.65,106.04 L 1564.46,106.53 L 1563.93,107.71 L 1563.64,108.34 L 1562.91,109.80 L 1562.52,110.58 L 1561.59,112.37 L 1559.93,115.46 L 1559.20,116.81 L 1557.92,119.11 L 1557.30,120.20 L 1556.22,122.00 L 1555.70,122.85 L 1554.79,124.19 L 1554.36,124.80 L 1553.61,125.71 L 1553.25,126.11 L 1552.62,126.60 L 1552.32,126.80 L 1551.80,126.91 L 1551.55,126.93 L 1551.10,126.69 L 1550.48,125.97 L 1550.34,125.73 L 1549.43,125.04 L 1548.89,124.66 L 1547.32,123.74 L 1546.47,123.26 L 1544.42,122.20 L 1543.34,121.66 L 1540.97,120.54 L 1538.54,119.42 L 1533.46,117.32 L 1532.23,116.84 L 1529.91,116.00 L 1526.84,115.02 L 1524.41,114.35 L 1519.11,113.51 L 1510.52,113.01 L 1508.70,113.01 L 1505.42,113.14 L 1503.84,113.23 L 1501.01,113.56 L 1499.65,113.76 L 1497.24,114.29 L 1496.08,114.59 L 1494.04,115.36 L 1493.07,115.77 L 1491.37,116.77 L 1490.56,117.31 L 1489.16,118.57 L 1488.49,119.24 L 1487.36,120.77 L 1485.91,123.40 L 1485.32,124.70 L 1484.58,127.08 L 1484.29,128.25 L 1484.14,130.51 L 1484.14,131.64 L 1484.59,133.94 L 1485.92,137.64 L 1486.33,138.54 L 1487.19,139.94 L 1487.65,140.60 L 1488.91,141.77 L 1489.62,142.36 L 1491.66,143.60 L 1492.24,143.93 L 1493.60,144.66 L 1496.02,145.89 L 1497.15,146.45 L 1499.31,147.48 L 1500.36,147.98 L 1502.21,148.79 L 1503.08,149.16 L 1504.40,149.68 L 1505.57,150.00 L 1505.77,150.00 L 1506.76,150.18 L 1507.34,150.30 L 1509.01,150.70 L 1509.91,150.92 L 1512.11,151.49 L 1513.27,151.80 L 1515.87,152.51 L 1518.56,153.24 L 1524.56,154.98 L 1533.44,157.66 L 1535.87,158.42 L 1540.28,159.99 L 1542.42,160.78 L 1546.29,162.42 L 1548.16,163.26 L 1551.52,165.01 L 1553.14,165.91 L 1556.04,167.80 L 1557.43,168.77 L 1559.90,170.82 L 1561.09,171.88 L 1563.18,174.13 L 1564.18,175.29 L 1565.93,177.77 L 1568.21,181.77 L 1568.61,182.58 L 1569.27,183.96 L 1569.57,184.62 L 1570.07,185.80 L 1570.53,186.95 L 1571.05,189.25 L 1571.16,189.87 L 1571.30,191.27 L 1571.36,192.01 L 1571.43,193.76 L 1571.46,194.69 L 1571.48,196.93 L 1571.49,200.98 L 1571.49,202.32 L 1571.47,204.65 L 1571.45,205.76 L 1571.40,207.69 L 1571.37,208.60 L 1571.27,210.20 L 1571.22,210.96 L 1571.06,212.31 L 1570.90,213.62 L 1570.35,215.86 L 1569.14,219.32 L 1568.50,220.91 L 1566.79,224.01 L 1565.87,225.54 L 1563.64,228.48 L 1562.47,229.92 L 1559.79,232.64 L 1558.39,233.98 L 1555.32,236.44 L 1553.74,237.64 L 1550.35,239.80 L 1548.61,240.83 L 1544.95,242.63 L 1543.10,243.49 L 1539.24,244.88 L 1533.30,246.47 L 1532.35,246.67 L 1530.09,247.03 L 1528.92,247.21 L 1526.32,247.53 L 1523.66,247.84 L 1517.97,248.29 L 1516.56,248.39 L 1513.85,248.52 L 1512.52,248.58 L 1510.08,248.63 L 1508.91,248.64 L 1506.89,248.60 L 1505.95,248.56 M 930.96,240.41 L 930.55,239.50 L 929.81,237.81 L 929.46,237.00 L 928.87,235.61 L 928.60,234.97 L 928.23,234.04 L 928.00,233.33 L 928.00,233.30 L 927.87,232.89 L 927.78,232.64 L 927.48,231.83 L 927.31,231.38 L 926.87,230.20 L 926.63,229.58 L 926.06,228.09 L 925.76,227.32 L 925.08,225.56 L 924.73,224.66 L 923.96,222.69 L 921.40,216.17 L 919.59,211.59 L 915.77,201.90 L 914.87,199.62 L 913.30,195.62 L 912.93,194.68 L 912.29,193.05 L 911.49,191.00 L 910.56,188.61 L 908.61,183.62 L 907.63,181.09 L 905.60,175.91 L 903.57,170.71 L 899.46,160.23 L 898.44,157.65 L 896.45,152.59 L 895.47,150.10 L 893.59,145.31 L 892.66,142.96 L 890.92,138.56 L 888.53,132.50 L 887.26,129.29 L 884.90,123.33 L 883.76,120.43 L 881.67,115.11 L 880.65,112.53 L 878.84,107.90 L 877.97,105.67 L 876.45,101.76 L 875.73,99.90 L 874.53,96.76 L 873.97,95.29 L 873.09,92.96 L 872.69,91.90 L 872.16,90.43 L 871.78,89.23 L 871.75,89.11 L 871.87,88.90 L 871.97,88.80 L 872.36,88.62 L 872.59,88.54 L 873.29,88.40 L 873.68,88.33 L 874.72,88.22 L 875.28,88.17 L 876.69,88.08 L 877.45,88.04 L 879.27,87.98 L 880.23,87.96 L 882.50,87.92 L 886.44,87.88 L 888.26,87.87 L 891.27,87.86 L 892.68,87.86 L 894.96,87.87 L 896.01,87.89 L 897.67,87.95 L 898.44,87.99 L 899.60,88.12 L 900.13,88.19 L 900.92,88.39 L 901.28,88.51 L 901.82,88.81 L 903.06,90.15 L 903.10,90.20 L 903.26,90.55 L 903.36,90.76 L 903.63,91.40 L 903.77,91.75 L 904.14,92.67 L 904.34,93.17 L 904.80,94.35 L 905.28,95.59 L 906.50,98.79 L 907.14,100.50 L 908.66,104.53 L 909.44,106.63 L 911.20,111.36 L 912.10,113.80 L 914.05,119.10 L 915.05,121.81 L 917.15,127.54 L 918.22,130.45 L 920.42,136.49 L 922.63,142.57 L 927.16,155.09 L 929.41,161.32 L 933.72,173.32 L 934.76,176.24 L 936.74,181.81 L 937.71,184.53 L 939.50,189.61 L 940.37,192.07 L 941.92,196.52 L 943.93,202.35 L 945.59,207.19 L 947.74,202.85 L 948.25,201.82 L 949.36,199.27 L 949.65,198.57 L 950.28,196.97 L 950.61,196.13 L 951.34,194.20 L 951.71,193.19 L 952.55,190.86 L 952.98,189.65 L 953.96,186.87 L 954.47,185.41 L 955.60,182.11 L 957.52,176.50 L 957.84,175.54 L 958.69,173.11 L 959.13,171.84 L 960.12,169.06 L 960.62,167.65 L 961.63,164.85 L 963.03,161.00 L 963.47,159.83 L 964.44,157.15 L 964.94,155.78 L 965.95,152.94 L 966.45,151.54 L 967.37,148.89 L 968.54,145.50 L 968.70,145.02 L 969.11,143.83 L 969.32,143.20 L 969.82,141.76 L 970.34,140.26 L 971.57,136.74 L 975.53,125.50 L 976.17,123.71 L 977.65,119.54 L 978.40,117.41 L 979.97,112.94 L 980.75,110.72 L 982.24,106.49 L 984.15,101.00 L 984.70,99.42 L 985.75,96.48 L 986.26,95.07 L 987.16,92.68 L 987.58,91.57 L 988.24,89.99 L 988.38,89.65 L 988.60,89.19 L 988.82,88.81 L 988.89,88.74 L 989.36,88.60 L 989.64,88.53 L 990.48,88.41 L 990.94,88.35 L 992.09,88.25 L 992.70,88.20 L 994.11,88.12 L 995.58,88.04 L 999.04,87.95 L 1000.83,87.91 L 1004.60,87.89 L 1006.48,87.89 L 1010.12,87.95 L 1011.88,87.99 L 1014.93,88.12 L 1015.64,88.16 L 1016.87,88.25 L 1017.45,88.30 L 1018.37,88.41 L 1018.80,88.47 L 1019.37,88.60 L 1019.77,88.82 L 1019.79,88.87 L 1019.65,89.42 L 1019.56,89.76 L 1019.20,90.86 L 1019.00,91.47 L 1018.43,93.08 L 1018.13,93.94 L 1017.38,96.02 L 1016.98,97.11 L 1016.05,99.62 L 1015.56,100.93 L 1014.47,103.84 L 1013.91,105.34 L 1012.67,108.62 L 1012.04,110.30 L 1010.67,113.89 L 1009.97,115.73 L 1008.49,119.62 L 1007.73,121.59 L 1006.14,125.73 L 1004.53,129.92 L 1001.06,138.89 L 999.29,143.45 L 995.60,152.94 L 993.73,157.72 L 989.93,167.43 L 988.03,172.29 L 984.24,181.92 L 982.36,186.70 L 978.69,195.96 L 976.89,200.51 L 973.47,209.10 L 972.63,211.19 L 971.03,215.19 L 970.24,217.16 L 968.74,220.89 L 968.00,222.72 L 966.61,226.15 L 965.94,227.82 L 964.68,230.91 L 964.07,232.40 L 962.95,235.10 L 962.42,236.40 L 961.46,238.68 L 961.01,239.77 L 960.23,241.59 L 959.86,242.45 L 959.27,243.78 L 959.00,244.38 L 958.61,245.18 L 958.27,245.75 L 958.00,245.96 L 956.84,246.30 L 956.15,246.45 L 954.18,246.69 L 953.10,246.79 L 950.32,246.92 L 945.27,247.00 L 933.92,247.00 L 930.96,240.41 M 1040.20,245.80 L 1040.15,245.75 L 1040.06,245.21 L 1040.01,244.87 L 1039.92,243.77 L 1039.88,243.16 L 1039.80,241.55 L 1039.76,240.68 L 1039.68,238.59 L 1039.64,237.48 L 1039.57,234.95 L 1039.54,233.63 L 1039.47,230.69 L 1039.44,229.17 L 1039.38,225.86 L 1039.35,224.17 L 1039.29,220.53 L 1039.27,218.68 L 1039.22,214.75 L 1039.19,212.76 L 1039.15,208.58 L 1039.11,204.34 L 1039.04,195.27 L 1039.01,190.66 L 1038.97,181.07 L 1038.95,176.24 L 1038.93,166.43 L 1038.92,161.52 L 1038.93,151.80 L 1038.94,146.97 L 1038.97,137.63 L 1038.99,133.04 L 1039.04,124.39 L 1039.06,122.28 L 1039.09,118.25 L 1039.11,116.27 L 1039.15,112.52 L 1039.18,110.68 L 1039.22,107.24 L 1039.25,105.56 L 1039.31,102.47 L 1039.33,100.97 L 1039.40,98.28 L 1039.43,96.98 L 1039.50,94.71 L 1039.53,93.63 L 1039.61,91.82 L 1039.64,90.98 L 1039.73,89.68 L 1039.77,89.09 L 1039.86,88.33 L 1040.00,87.83 L 1040.03,87.82 L 1040.37,87.80 L 1040.59,87.79 L 1041.28,87.77 L 1041.67,87.76 L 1042.69,87.75 L 1043.24,87.74 L 1044.57,87.72 L 1045.27,87.72 L 1046.89,87.71 L 1047.74,87.70 L 1049.64,87.69 L 1051.60,87.69 L 1056.27,87.68 L 1058.72,87.67 L 1064.25,87.68 L 1067.10,87.68 L 1073.34,87.69 L 1076.53,87.70 L 1083.33,87.72 L 1094.00,87.77 L 1147.00,88.03 L 1147.00,100.02 L 1147.00,101.66 L 1146.98,104.69 L 1146.97,106.13 L 1146.93,108.54 L 1146.90,109.65 L 1146.85,111.19 L 1146.83,111.51 L 1146.80,111.93 L 1146.75,112.22 L 1146.73,112.24 L 1145.91,112.28 L 1145.38,112.30 L 1143.62,112.35 L 1142.62,112.37 L 1140.01,112.43 L 1138.61,112.46 L 1135.26,112.53 L 1133.51,112.57 L 1129.53,112.64 L 1127.47,112.67 L 1122.97,112.75 L 1120.66,112.78 L 1115.74,112.86 L 1108.00,112.97 L 1069.50,113.50 L 1069.23,131.93 L 1069.20,133.44 L 1069.18,136.22 L 1069.17,137.56 L 1069.18,139.99 L 1069.18,141.16 L 1069.21,143.24 L 1069.23,144.24 L 1069.29,145.96 L 1069.33,146.78 L 1069.42,148.14 L 1069.46,148.78 L 1069.58,149.79 L 1069.64,150.24 L 1069.78,150.88 L 1070.03,151.43 L 1070.11,151.51 L 1070.81,151.68 L 1071.25,151.76 L 1072.63,151.92 L 1073.41,152.00 L 1075.47,152.15 L 1076.58,152.22 L 1079.30,152.35 L 1080.74,152.42 L 1084.12,152.54 L 1085.89,152.60 L 1089.90,152.72 L 1091.99,152.77 L 1096.64,152.87 L 1104.30,153.00 L 1137.50,153.50 L 1137.78,164.36 L 1137.83,166.14 L 1137.83,169.16 L 1137.82,170.57 L 1137.70,172.82 L 1137.63,173.84 L 1137.40,175.31 L 1136.91,176.61 L 1136.79,176.75 L 1136.28,176.99 L 1135.97,177.11 L 1134.98,177.30 L 1134.41,177.40 L 1132.82,177.55 L 1131.94,177.62 L 1129.62,177.73 L 1128.37,177.78 L 1125.21,177.86 L 1123.52,177.89 L 1119.40,177.94 L 1118.31,177.95 L 1115.91,177.97 L 1114.68,177.98 L 1112.01,177.99 L 1110.64,177.99 L 1107.67,178.00 L 1102.86,178.00 L 1069.96,178.00 L 1070.23,198.75 L 1070.50,219.50 L 1110.25,219.76 L 1150.00,220.02 L 1150.00,232.48 L 1150.00,233.89 L 1149.99,236.26 L 1149.98,237.38 L 1149.94,239.21 L 1149.92,240.07 L 1149.85,241.46 L 1149.81,242.10 L 1149.69,243.10 L 1149.62,243.56 L 1149.45,244.26 L 1149.35,244.58 L 1149.11,245.05 L 1148.07,245.96 L 1147.97,246.01 L 1147.50,246.11 L 1147.22,246.15 L 1146.39,246.24 L 1145.93,246.28 L 1144.76,246.36 L 1144.13,246.40 L 1142.65,246.47 L 1141.87,246.51 L 1140.10,246.58 L 1139.19,246.61 L 1137.15,246.67 L 1135.06,246.73 L 1130.19,246.83 L 1127.66,246.87 L 1122.06,246.94 L 1119.19,246.98 L 1113.06,247.02 L 1106.83,247.06 L 1093.62,247.07 L 1090.32,247.06 L 1083.78,247.03 L 1080.53,247.01 L 1074.25,246.96 L 1071.16,246.93 L 1065.33,246.86 L 1062.49,246.81 L 1057.31,246.71 L 1054.82,246.66 L 1050.49,246.54 L 1049.47,246.50 L 1047.62,246.44 L 1046.73,246.40 L 1045.17,246.33 L 1044.42,246.29 L 1043.16,246.21 L 1042.57,246.17 L 1041.64,246.08 L 1041.22,246.04 L 1040.64,245.94 L 1040.40,245.90 M 1270.32,246.22 L 1270.24,246.17 L 1269.86,245.70 L 1269.64,245.41 L 1269.00,244.51 L 1268.66,244.01 L 1267.79,242.72 L 1267.34,242.03 L 1266.29,240.41 L 1265.74,239.56 L 1264.53,237.65 L 1263.90,236.67 L 1262.56,234.53 L 1258.24,227.49 L 1256.74,225.01 L 1253.61,219.87 L 1252.05,217.31 L 1249.06,212.43 L 1248.34,211.26 L 1246.98,209.05 L 1246.32,207.97 L 1245.12,206.03 L 1244.55,205.09 L 1243.55,203.47 L 1242.31,201.50 L 1237.30,193.50 L 1221.40,193.50 L 1205.50,193.50 L 1205.23,218.42 L 1205.21,220.46 L 1205.15,224.20 L 1205.12,226.01 L 1205.05,229.29 L 1205.01,230.87 L 1204.91,233.67 L 1204.86,235.02 L 1204.75,237.34 L 1204.69,238.45 L 1204.57,240.29 L 1204.50,241.15 L 1204.35,242.50 L 1204.28,243.11 L 1204.12,243.96 L 1203.86,244.67 L 1203.66,244.91 L 1202.69,245.29 L 1202.10,245.46 L 1200.24,245.70 L 1199.71,245.75 L 1198.45,245.84 L 1197.78,245.87 L 1196.24,245.93 L 1195.43,245.95 L 1193.59,245.98 L 1190.46,246.00 L 1188.77,246.00 L 1185.56,245.95 L 1184.01,245.92 L 1181.31,245.82 L 1180.05,245.77 L 1178.17,245.63 L 1177.76,245.59 L 1177.15,245.51 L 1176.58,245.39 L 1176.40,245.32 L 1176.11,244.74 L 1176.03,244.53 L 1175.91,243.95 L 1175.85,243.62 L 1175.73,242.74 L 1175.68,242.26 L 1175.58,241.04 L 1175.54,240.38 L 1175.46,238.76 L 1175.42,237.90 L 1175.35,235.83 L 1175.31,234.73 L 1175.26,232.15 L 1175.23,230.79 L 1175.18,227.65 L 1175.16,226.01 L 1175.13,222.25 L 1175.11,220.29 L 1175.08,215.87 L 1175.07,213.57 L 1175.05,208.43 L 1175.04,205.76 L 1175.02,199.84 L 1175.02,196.78 L 1175.01,190.02 L 1175.01,186.54 L 1175.00,178.90 L 1175.00,166.39 L 1175.00,162.51 L 1175.00,155.29 L 1175.01,151.76 L 1175.01,145.21 L 1175.02,142.02 L 1175.03,136.12 L 1175.04,133.25 L 1175.06,127.97 L 1175.07,125.40 L 1175.09,120.72 L 1175.10,118.44 L 1175.13,114.32 L 1175.15,112.33 L 1175.19,108.74 L 1175.21,107.01 L 1175.25,103.93 L 1175.28,102.45 L 1175.33,99.84 L 1175.36,98.60 L 1175.42,96.44 L 1175.45,95.42 L 1175.52,93.69 L 1175.56,92.87 L 1175.64,91.53 L 1175.68,90.90 L 1175.77,89.92 L 1175.81,89.47 L 1175.91,88.83 L 1175.96,88.54 L 1176.07,88.20 L 1176.25,88.01 L 1176.34,88.01 L 1177.31,88.00 L 1177.92,88.00 L 1179.85,88.00 L 1180.93,88.00 L 1183.72,87.99 L 1185.21,87.99 L 1188.74,87.99 L 1190.58,87.98 L 1194.74,87.97 L 1196.89,87.97 L 1201.56,87.96 L 1203.96,87.96 L 1209.04,87.95 L 1217.00,87.93 L 1219.72,87.93 L 1224.66,87.92 L 1227.06,87.92 L 1231.41,87.92 L 1233.51,87.92 L 1237.31,87.94 L 1239.15,87.95 L 1242.45,88.00 L 1244.04,88.02 L 1246.89,88.09 L 1248.26,88.12 L 1250.70,88.22 L 1251.88,88.28 L 1253.97,88.42 L 1254.98,88.49 L 1256.77,88.67 L 1258.50,88.87 L 1261.24,89.41 L 1262.53,89.71 L 1264.71,90.49 L 1265.76,90.92 L 1267.76,92.00 L 1270.99,93.99 L 1271.72,94.46 L 1273.30,95.65 L 1274.12,96.27 L 1275.82,97.73 L 1277.55,99.25 L 1281.06,102.78 L 1282.78,104.58 L 1285.87,108.26 L 1286.59,109.16 L 1287.85,110.88 L 1289.40,113.28 L 1290.49,115.16 L 1292.28,119.15 L 1293.12,121.17 L 1294.40,125.41 L 1294.97,127.55 L 1295.74,131.95 L 1296.06,134.16 L 1296.31,138.64 L 1296.37,140.88 L 1296.10,145.36 L 1295.90,147.59 L 1295.12,151.99 L 1294.66,154.17 L 1293.34,158.40 L 1290.78,164.47 L 1290.00,166.03 L 1287.74,169.38 L 1286.52,171.06 L 1283.64,174.39 L 1282.16,176.02 L 1278.97,179.00 L 1274.18,182.68 L 1273.40,183.19 L 1271.95,184.13 L 1271.25,184.58 L 1270.08,185.35 L 1269.54,185.70 L 1268.76,186.20 L 1268.20,186.57 L 1268.18,186.58 L 1268.33,186.90 L 1268.43,187.11 L 1268.78,187.78 L 1268.99,188.16 L 1269.54,189.14 L 1269.83,189.67 L 1270.55,190.92 L 1271.30,192.23 L 1273.18,195.46 L 1274.17,197.15 L 1276.37,200.89 L 1278.62,204.69 L 1283.20,212.31 L 1284.28,214.10 L 1286.21,217.26 L 1286.67,218.00 L 1287.49,219.31 L 1288.55,221.00 L 1289.83,223.00 L 1292.12,226.63 L 1293.21,228.39 L 1295.13,231.55 L 1296.05,233.07 L 1297.61,235.75 L 1298.34,237.03 L 1299.54,239.23 L 1300.10,240.27 L 1300.93,242.01 L 1301.31,242.81 L 1301.79,244.07 L 1301.98,244.64 L 1302.10,245.44 L 1301.88,246.10 L 1301.77,246.16 L 1301.27,246.28 L 1300.97,246.34 L 1300.11,246.45 L 1299.64,246.50 L 1298.48,246.59 L 1297.87,246.64 L 1296.47,246.71 L 1295.02,246.78 L 1291.59,246.88 L 1289.83,246.92 L 1286.09,246.95 L 1284.22,246.96 L 1280.59,246.92 L 1278.83,246.90 L 1275.71,246.79 L 1274.99,246.76 L 1273.70,246.69 L 1273.09,246.65 L 1272.08,246.56 L 1271.62,246.51 L 1270.93,246.40 L 1270.63,246.35 M 1252.69,164.05 L 1253.98,163.47 L 1256.43,161.62 L 1257.63,160.60 L 1259.80,157.99 L 1260.83,156.61 L 1262.59,153.43 L 1264.64,148.17 L 1265.18,146.32 L 1265.66,142.54 L 1265.81,140.65 L 1265.58,136.90 L 1265.37,135.04 L 1264.48,131.44 L 1263.96,129.68 L 1262.48,126.37 L 1261.67,124.77 L 1259.67,121.90 L 1258.61,120.54 L 1256.16,118.23 L 1254.89,117.17 L 1252.06,115.56 L 1247.46,114.10 L 1247.21,114.06 L 1246.34,113.99 L 1245.85,113.95 L 1244.54,113.89 L 1243.85,113.86 L 1242.17,113.82 L 1241.30,113.79 L 1239.32,113.76 L 1237.28,113.73 L 1232.52,113.73 L 1224.90,113.79 L 1206.00,114.08 L 1206.00,140.04 L 1206.00,166.00 L 1227.25,165.98 L 1229.59,165.98 L 1233.57,165.96 L 1235.45,165.95 L 1238.60,165.90 L 1240.09,165.88 L 1242.55,165.80 L 1243.71,165.76 L 1245.61,165.64 L 1246.49,165.57 L 1247.95,165.39 L 1248.64,165.30 L 1249.79,165.06 L 1250.88,164.80 M 752.25,245.34 L 752.20,245.32 L 752.10,244.83 L 752.06,244.51 L 751.96,243.46 L 751.92,242.87 L 751.83,241.30 L 751.79,240.45 L 751.71,238.39 L 751.67,237.30 L 751.60,234.80 L 751.56,233.49 L 751.49,230.58 L 751.46,229.07 L 751.39,225.79 L 751.36,224.10 L 751.31,220.48 L 751.28,218.63 L 751.23,214.72 L 751.20,212.73 L 751.16,208.56 L 751.11,204.33 L 751.04,195.27 L 751.01,190.66 L 750.96,181.07 L 750.94,176.24 L 750.92,166.43 L 750.91,161.52 L 750.91,151.79 L 750.92,146.96 L 750.95,137.61 L 750.97,133.02 L 751.02,124.36 L 751.04,122.25 L 751.07,118.22 L 751.09,116.24 L 751.13,112.49 L 751.16,110.65 L 751.21,107.22 L 751.23,105.54 L 751.29,102.46 L 751.32,100.97 L 751.38,98.28 L 751.41,96.99 L 751.48,94.73 L 751.52,93.66 L 751.60,91.87 L 751.64,91.04 L 751.72,89.75 L 751.76,89.18 L 751.85,88.44 L 752.00,87.99 L 752.03,87.99 L 752.37,87.99 L 752.58,87.99 L 753.26,87.99 L 753.64,87.99 L 754.64,87.99 L 755.18,87.99 L 756.49,87.99 L 757.18,87.99 L 758.78,87.99 L 759.61,87.99 L 761.47,87.99 L 763.40,87.99 L 767.98,87.98 L 770.38,87.98 L 775.81,87.98 L 778.61,87.98 L 784.73,87.98 L 787.86,87.98 L 794.53,87.98 L 805.00,87.98 L 808.57,87.98 L 815.47,87.98 L 818.86,87.98 L 825.27,87.98 L 828.40,87.98 L 834.19,87.98 L 837.00,87.98 L 842.02,87.98 L 844.42,87.98 L 848.53,87.99 L 849.49,87.99 L 851.22,87.99 L 852.06,87.99 L 853.51,87.99 L 854.20,87.99 L 855.36,87.99 L 855.90,87.99 L 856.74,87.99 L 857.12,87.99 L 857.63,87.99 L 858.00,87.99 L 858.05,87.99 L 858.16,88.26 L 858.21,88.43 L 858.31,89.00 L 858.41,89.65 L 858.59,91.68 L 858.68,92.79 L 858.83,95.47 L 858.90,96.86 L 859.00,99.84 L 859.05,101.33 L 859.10,104.24 L 859.11,105.65 L 859.10,108.13 L 859.08,109.28 L 858.99,110.97 L 858.96,111.33 L 858.89,111.83 L 858.75,112.22 L 858.73,112.24 L 857.91,112.28 L 857.38,112.30 L 855.62,112.35 L 854.62,112.37 L 852.01,112.43 L 850.61,112.46 L 847.26,112.53 L 845.51,112.57 L 841.53,112.64 L 839.47,112.67 L 834.97,112.75 L 832.66,112.78 L 827.74,112.86 L 820.00,112.97 L 781.50,113.50 L 781.23,132.43 L 781.20,134.24 L 781.17,137.40 L 781.16,138.92 L 781.16,141.53 L 781.16,142.77 L 781.20,144.87 L 781.22,145.86 L 781.28,147.49 L 781.32,148.25 L 781.43,149.46 L 781.49,150.02 L 781.63,150.85 L 781.71,151.23 L 781.90,151.73 L 782.23,152.16 L 782.31,152.22 L 783.14,152.32 L 783.65,152.38 L 785.26,152.48 L 786.15,152.53 L 788.45,152.62 L 789.67,152.66 L 792.57,152.74 L 794.08,152.77 L 797.49,152.84 L 799.24,152.87 L 803.06,152.92 L 805.02,152.94 L 809.16,152.97 L 815.64,152.98 L 817.42,152.99 L 820.68,152.99 L 822.27,152.99 L 825.18,153.00 L 826.59,153.00 L 829.16,153.02 L 830.40,153.02 L 832.66,153.04 L 833.75,153.05 L 835.71,153.08 L 836.65,153.09 L 838.34,153.13 L 839.95,153.16 L 842.46,153.26 L 843.60,153.32 L 845.28,153.47 L 846.03,153.55 L 847.04,153.74 L 847.48,153.85 L 848.00,154.11 L 848.39,154.58 L 848.52,154.91 L 848.71,156.18 L 848.80,156.89 L 848.91,158.76 L 848.96,159.75 L 848.99,161.99 L 849.00,163.14 L 848.97,165.54 L 848.95,166.73 L 848.85,169.06 L 848.80,170.19 L 848.64,172.21 L 848.56,173.16 L 848.34,174.66 L 847.96,176.07 L 847.84,176.30 L 847.51,176.68 L 847.32,176.86 L 846.67,177.15 L 846.29,177.28 L 845.09,177.49 L 844.41,177.59 L 842.43,177.73 L 841.88,177.76 L 840.58,177.81 L 839.90,177.84 L 838.33,177.88 L 837.51,177.90 L 835.64,177.92 L 834.66,177.94 L 832.46,177.96 L 831.31,177.97 L 828.74,177.98 L 827.41,177.99 L 824.45,177.99 L 822.92,178.00 L 819.54,178.00 L 813.96,178.00 L 781.00,178.00 L 781.00,198.39 L 781.00,200.60 L 781.01,204.35 L 781.02,206.12 L 781.05,209.06 L 781.07,210.43 L 781.14,212.67 L 781.18,213.70 L 781.28,215.32 L 781.33,216.07 L 781.48,217.18 L 781.56,217.68 L 781.76,218.38 L 781.86,218.68 L 782.12,219.06 L 782.58,219.39 L 782.69,219.43 L 783.68,219.51 L 784.30,219.55 L 786.23,219.63 L 787.30,219.66 L 790.05,219.73 L 791.52,219.76 L 794.98,219.82 L 796.80,219.85 L 800.87,219.90 L 802.97,219.92 L 807.54,219.95 L 809.88,219.97 L 814.83,219.99 L 822.58,220.00 L 861.00,220.00 L 861.00,232.39 L 861.00,233.69 L 860.99,235.91 L 860.98,236.96 L 860.94,238.73 L 860.92,239.56 L 860.85,240.93 L 860.81,241.57 L 860.71,242.59 L 860.65,243.07 L 860.50,243.79 L 860.42,244.12 L 860.22,244.61 L 859.42,245.39 L 859.36,245.42 L 858.95,245.46 L 858.70,245.48 L 857.92,245.52 L 857.49,245.54 L 856.38,245.58 L 855.78,245.59 L 854.34,245.63 L 853.59,245.65 L 851.87,245.68 L 850.97,245.69 L 848.98,245.72 L 846.93,245.75 L 842.13,245.79 L 839.63,245.81 L 834.09,245.85 L 831.24,245.86 L 825.15,245.89 L 818.97,245.91 L 805.80,245.91 L 799.22,245.91 L 786.45,245.87 L 783.36,245.85 L 777.52,245.82 L 774.68,245.80 L 769.49,245.76 L 766.99,245.73 L 762.65,245.67 L 761.62,245.66 L 759.77,245.63 L 758.87,245.61 L 757.29,245.58 L 756.54,245.56 L 755.27,245.52 L 754.67,245.51 L 753.73,245.47 L 753.30,245.45 L 752.71,245.40 L 752.46,245.38 M 1326.67,245.33 L 1326.64,245.31 L 1326.60,244.86 L 1326.58,244.57 L 1326.53,243.60 L 1326.51,243.05 L 1326.47,241.60 L 1326.45,240.81 L 1326.41,238.89 L 1326.39,237.88 L 1326.35,235.53 L 1326.33,234.30 L 1326.29,231.54 L 1326.28,230.11 L 1326.24,226.96 L 1326.23,225.35 L 1326.20,221.85 L 1326.18,220.06 L 1326.15,216.24 L 1326.14,214.29 L 1326.11,210.17 L 1326.09,205.97 L 1326.05,196.80 L 1326.04,192.10 L 1326.01,182.08 L 1326.00,166.33 L 1326.00,88.00 L 1379.50,88.00 L 1433.00,88.00 L 1433.00,100.00 L 1433.00,101.65 L 1432.98,104.68 L 1432.97,106.12 L 1432.93,108.54 L 1432.90,109.65 L 1432.85,111.19 L 1432.83,111.51 L 1432.80,111.93 L 1432.75,112.22 L 1432.73,112.23 L 1431.92,112.27 L 1431.40,112.30 L 1429.65,112.35 L 1428.67,112.37 L 1426.10,112.43 L 1424.72,112.46 L 1421.41,112.53 L 1419.68,112.56 L 1415.75,112.64 L 1413.72,112.67 L 1409.27,112.75 L 1407.00,112.78 L 1402.14,112.86 L 1394.50,112.97 L 1356.50,113.50 L 1356.23,132.75 L 1356.19,135.40 L 1356.14,140.24 L 1356.14,141.40 L 1356.12,143.53 L 1356.12,144.56 L 1356.12,146.41 L 1356.12,147.29 L 1356.12,148.80 L 1356.13,149.50 L 1356.14,150.61 L 1356.15,151.11 L 1356.18,151.78 L 1356.23,152.22 L 1356.25,152.23 L 1356.97,152.27 L 1357.43,152.29 L 1358.98,152.34 L 1359.84,152.37 L 1362.12,152.43 L 1363.34,152.46 L 1366.26,152.53 L 1367.79,152.56 L 1371.26,152.63 L 1373.05,152.67 L 1376.97,152.74 L 1378.98,152.78 L 1383.27,152.85 L 1390.00,152.97 L 1423.50,153.50 L 1423.78,164.36 L 1423.83,166.14 L 1423.83,169.16 L 1423.82,170.57 L 1423.70,172.82 L 1423.63,173.84 L 1423.40,175.31 L 1422.91,176.61 L 1422.79,176.75 L 1422.28,176.99 L 1421.97,177.11 L 1420.98,177.30 L 1420.41,177.40 L 1418.82,177.55 L 1417.94,177.62 L 1415.63,177.73 L 1414.37,177.78 L 1411.22,177.86 L 1409.52,177.89 L 1405.41,177.94 L 1404.32,177.95 L 1401.93,177.97 L 1400.70,177.98 L 1398.02,177.99 L 1396.65,177.99 L 1393.68,178.00 L 1388.88,178.00 L 1356.00,178.00 L 1356.00,198.39 L 1356.00,200.60 L 1356.01,204.35 L 1356.02,206.12 L 1356.05,209.06 L 1356.07,210.43 L 1356.14,212.67 L 1356.18,213.70 L 1356.28,215.32 L 1356.33,216.07 L 1356.48,217.18 L 1356.56,217.68 L 1356.76,218.38 L 1356.86,218.68 L 1357.12,219.06 L 1357.58,219.39 L 1357.69,219.43 L 1358.68,219.51 L 1359.30,219.55 L 1361.23,219.63 L 1362.30,219.66 L 1365.05,219.73 L 1366.52,219.76 L 1369.98,219.82 L 1371.80,219.85 L 1375.87,219.90 L 1377.97,219.92 L 1382.54,219.95 L 1384.88,219.97 L 1389.83,219.99 L 1397.58,220.00 L 1436.00,220.00 L 1436.00,231.80 L 1436.00,233.76 L 1435.92,237.03 L 1435.87,238.55 L 1435.70,240.94 L 1435.60,242.03 L 1435.32,243.54 L 1434.80,244.80 L 1434.69,244.91 L 1433.85,245.11 L 1433.31,245.21 L 1431.55,245.37 L 1431.05,245.41 L 1429.85,245.48 L 1429.22,245.51 L 1427.76,245.58 L 1426.99,245.61 L 1425.24,245.66 L 1424.33,245.69 L 1422.29,245.74 L 1421.23,245.76 L 1418.88,245.80 L 1417.67,245.82 L 1414.99,245.86 L 1413.62,245.88 L 1410.61,245.90 L 1409.06,245.92 L 1405.70,245.94 L 1403.98,245.95 L 1400.25,245.97 L 1398.35,245.97 L 1394.25,245.99 L 1392.15,245.99 L 1387.66,246.00 L 1380.47,246.00 L 1376.81,246.00 L 1369.78,245.99 L 1366.32,245.98 L 1359.78,245.95 L 1356.59,245.93 L 1350.70,245.89 L 1347.85,245.86 L 1342.75,245.80 L 1340.31,245.77 L 1336.15,245.71 L 1335.17,245.69 L 1333.42,245.65 L 1332.58,245.63 L 1331.12,245.59 L 1330.42,245.57 L 1329.26,245.53 L 1328.72,245.51 L 1327.89,245.47 L 1327.51,245.45 L 1327.01,245.40 L 1326.81,245.38 M 1634.67,245.33 L 1634.64,245.31 L 1634.60,244.93 L 1634.58,244.69 L 1634.53,243.89 L 1634.51,243.44 L 1634.47,242.24 L 1634.45,241.59 L 1634.41,240.01 L 1634.39,239.18 L 1634.35,237.25 L 1634.33,236.24 L 1634.29,233.97 L 1634.28,232.79 L 1634.24,230.22 L 1634.23,228.89 L 1634.20,226.02 L 1634.17,223.08 L 1634.11,216.44 L 1634.09,213.00 L 1634.05,205.48 L 1634.04,201.63 L 1634.01,193.42 L 1634.00,180.52 L 1634.00,177.42 L 1634.00,171.60 L 1633.99,168.76 L 1633.99,163.47 L 1633.98,160.88 L 1633.97,156.09 L 1633.96,153.75 L 1633.94,149.43 L 1633.93,147.33 L 1633.91,143.48 L 1633.89,141.60 L 1633.86,138.18 L 1633.84,136.52 L 1633.80,133.51 L 1633.78,132.06 L 1633.74,129.45 L 1633.71,128.19 L 1633.66,125.95 L 1633.63,124.87 L 1633.57,122.98 L 1633.54,122.08 L 1633.47,120.52 L 1633.43,119.79 L 1633.35,118.54 L 1633.31,117.95 L 1633.23,117.00 L 1633.18,116.55 L 1633.08,115.86 L 1632.75,114.70 L 1632.61,114.51 L 1632.21,114.20 L 1631.98,114.05 L 1631.29,113.80 L 1630.89,113.68 L 1629.78,113.49 L 1629.16,113.40 L 1627.49,113.26 L 1626.57,113.19 L 1624.22,113.08 L 1622.94,113.03 L 1619.76,112.95 L 1618.06,112.91 L 1613.92,112.85 L 1612.82,112.83 L 1610.42,112.80 L 1606.50,112.76 L 1581.50,112.50 L 1581.50,100.22 L 1581.50,87.94 L 1647.00,87.97 L 1651.50,87.97 L 1660.17,87.97 L 1664.44,87.97 L 1672.49,87.98 L 1676.43,87.98 L 1683.68,87.98 L 1687.20,87.98 L 1693.48,87.99 L 1694.98,87.99 L 1697.77,87.99 L 1699.12,87.99 L 1701.61,87.99 L 1702.81,87.99 L 1704.96,87.99 L 1705.99,87.99 L 1707.79,87.99 L 1708.64,87.99 L 1710.07,87.99 L 1710.73,87.99 L 1711.76,87.99 L 1712.22,87.99 L 1712.83,88.00 L 1713.25,88.00 L 1713.29,88.00 L 1713.37,88.26 L 1713.41,88.44 L 1713.49,89.02 L 1713.56,89.66 L 1713.70,91.71 L 1713.76,92.82 L 1713.87,95.52 L 1713.92,96.91 L 1713.99,99.90 L 1714.02,101.40 L 1714.05,104.31 L 1714.06,105.73 L 1714.04,108.20 L 1714.02,109.35 L 1713.94,111.01 L 1713.92,111.36 L 1713.86,111.85 L 1713.75,112.21 L 1713.73,112.22 L 1713.19,112.26 L 1712.84,112.28 L 1711.68,112.33 L 1711.03,112.35 L 1709.33,112.41 L 1708.41,112.44 L 1706.23,112.51 L 1705.09,112.55 L 1702.50,112.62 L 1701.16,112.65 L 1698.23,112.73 L 1688.50,112.96 L 1663.50,113.50 L 1663.24,178.41 L 1663.23,181.28 L 1663.21,186.71 L 1663.19,189.37 L 1663.16,194.40 L 1663.15,196.86 L 1663.12,201.49 L 1663.10,203.76 L 1663.06,208.00 L 1663.04,210.07 L 1663.00,213.93 L 1662.98,215.81 L 1662.94,219.30 L 1662.91,220.99 L 1662.86,224.12 L 1662.84,225.63 L 1662.78,228.39 L 1662.76,229.73 L 1662.70,232.15 L 1662.67,233.31 L 1662.60,235.38 L 1662.57,236.38 L 1662.50,238.12 L 1662.47,238.95 L 1662.39,240.36 L 1662.35,241.03 L 1662.27,242.12 L 1662.23,242.63 L 1662.15,243.42 L 1662.10,243.78 L 1662.01,244.26 L 1661.87,244.66 L 1661.66,244.91 L 1660.69,245.29 L 1660.09,245.46 L 1658.18,245.70 L 1657.64,245.75 L 1656.34,245.84 L 1655.66,245.88 L 1654.06,245.93 L 1653.23,245.95 L 1651.31,245.98 L 1648.04,246.00 L 1646.30,246.00 L 1643.06,245.95 L 1641.50,245.91 L 1638.87,245.80 L 1637.66,245.74 L 1635.93,245.59 L 1635.57,245.55 L 1635.06,245.47 L 1634.85,245.42 Z" fill="rgba(25,25,25,1)"/>
</g>
</svg>